<svg version="1.2" baseProfile="tiny" viewBox="0 0 280.133 155.253" xmlns:xlink="http://www.w3.org/1999/xlink" xmlns="http://www.w3.org/2000/svg">
<path style="fill:#ffffff;" d="M277.9452,88.9553L246.1333,88.9553L246.1333,50.0287L243.8558,47.0556L243.8558,46.3896C243.8558,45.899,243.4552,45.4984,242.965,45.4984L238.8022,45.4984C238.3091,45.4984,237.9085,45.899,237.9085,46.3896L237.9085,47.804C237.9085,47.1954,237.508,46.6986,237.0177,46.6986L200.5276,46.6986L200.5276,46.6846C198.3482,46.6846,198.3482,45.0544,198.3482,45.0544L198.3482,45.0296C198.3482,45.1289,198.1521,44.8293,197.8411,44.3046C197.6366,43.9521,197.3817,43.4972,197.1016,42.9927C195.911,40.8564,194.2778,37.8165,194.1434,37.8165L194.1434,37.8165L155.401,37.8165L155.401,26.2284C161.5135,25.3218,166.2057,20.0494,166.2057,13.6856C166.2057,6.6774,160.5246,0.9998,153.5213,0.9998C146.518,0.9998,140.8341,6.6774,140.8341,13.6856C140.8341,20.0494,145.5263,25.3218,151.6388,26.2269L151.6388,37.8181L112.9216,37.8181L112.9216,37.8181C112.7871,37.8181,111.154,40.8564,109.9634,42.9927C109.6833,43.4988,109.4256,43.9537,109.221,44.3046C108.9129,44.8293,108.714,45.1305,108.714,45.0311L108.714,45.056C108.714,45.056,108.714,46.6846,106.5374,46.6846L106.5374,46.7001L78.1543,46.7001L78.1543,46.7001C77.6641,46.7001,77.2635,47.1954,77.2635,47.8055L77.2635,64.8228L54.3122,64.8228L54.3122,64.8228C52.4549,64.8228,51.8442,61.4926,51.7742,61.0765L51.7686,61.0377L50.5248,52.6572C50.4267,52.0098,49.8693,51.2475,49.2754,50.9649L46.4657,49.6204C45.8746,49.3394,44.8577,49.1065,44.205,49.1065L15.665,49.1065C15.0095,49.1065,14.001,49.3565,13.4268,49.6623L2.0478,55.7017C1.4735,56.0075,1.0001,56.7915,1.0001,57.4467L1.0001,130.8705C1.0001,131.5241,1.4735,132.3097,2.0478,132.6156L13.4268,138.6534C14.0038,138.9608,15.0095,139.2107,15.665,139.2107L44.205,139.2107C44.8577,139.2107,45.8746,138.9778,46.4657,138.6953L49.2754,137.3508C49.8665,137.0698,50.4267,136.3075,50.5248,135.6601L51.7686,127.2795L51.7742,127.2438C51.8414,126.8277,52.4549,123.4945,54.3122,123.4945L77.2635,123.4945L77.2635,140.5117C77.2635,141.1188,77.6641,141.6187,78.1571,141.6187L106.5402,141.6187C108.7168,141.6187,108.7168,143.4429,108.7168,143.4429L108.7168,154.2532L198.351,154.2532L198.351,143.4429C198.351,143.4429,198.351,141.6187,200.5304,141.6187L237.0205,141.6187C237.5108,141.6187,237.9113,141.1188,237.9113,140.5117L237.9113,141.9245C237.9113,142.4167,238.3119,142.8172,238.805,142.8172L242.9678,142.8172C243.458,142.8172,243.8586,142.4167,243.8586,141.9245L243.8586,141.2601L246.136,138.287L246.136,99.3604L277.948,99.3604C278.6007,99.3604,279.1357,98.8247,279.1357,98.1711L279.1357,90.1446C279.1329,89.4894,278.5979,88.9553,277.9452,88.9553M153.5213,4.4899C158.6001,4.4899,162.7153,8.6041,162.7153,13.6856C162.7153,18.7623,158.5973,22.8765,153.5213,22.8765C148.4453,22.8765,144.3273,18.7623,144.3273,13.6856C144.3273,8.6041,148.4453,4.4899,153.5213,4.4899Z"/>
</svg>