<svg version="1.2" baseProfile="tiny" id="EdgeSVG_sXn7J" x="0px" y="0px" width="280.133px" height="155.253px" viewBox="0 0 280.133 155.253" xmlns:xlink="http://www.w3.org/1999/xlink" xmlns="http://www.w3.org/2000/svg">
  <linearGradient id="SVGID_1_" gradientUnits="userSpaceOnUse" x1="0" y1="77.6265" x2="280.1333" y2="77.6265">
    <stop offset="0" style="stop-color:#000000;stop-opacity:0.5"/>
    <stop offset="1" style="stop-color:#000000;stop-opacity:0.5"/>
  </linearGradient>
  <path fill="url(#SVGID_1_)" d="M277.944,87.955h-30.811V49.689l-2.277-2.973v-0.326c0-0.972-0.739-1.766-1.683-1.871l-0.317-0.414&#xD;&#xA;&#x9;&#x9;v0.393h-4.054c-0.8,0-1.481,0.5-1.758,1.204c-0.009,0-0.017-0.003-0.026-0.003h-35.489v-0.015h-1c-0.989,0-1.164-0.413-1.18-0.629&#xD;&#xA;&#x9;&#x9;V45.03h-0.737c-0.038-0.071-0.076-0.143-0.117-0.221l0.566-0.439c-0.071-0.092-0.193-0.296-0.353-0.568&#xD;&#xA;&#x9;&#x9;c-0.201-0.347-0.455-0.795-0.732-1.296l-0.896-1.62c-2.242-4.068-2.242-4.068-2.936-4.068l-0.029,0h-37.712v-9.77&#xD;&#xA;&#x9;&#x9;c6.215-1.337,10.804-6.928,10.804-13.364C167.207,6.139,161.068,0,153.521,0s-13.686,6.139-13.686,13.685&#xD;&#xA;&#x9;&#x9;c0,6.437,4.59,12.028,10.804,13.364v9.77h-36.718v0h-1c-0.693,0-0.693,0-2.933,4.064l-0.899,1.625&#xD;&#xA;&#x9;&#x9;c-0.277,0.499-0.53,0.947-0.729,1.291c-0.162,0.276-0.284,0.48-0.355,0.572l0.534,0.502c-0.029,0.054-0.057,0.107-0.083,0.158&#xD;&#xA;&#x9;&#x9;h-0.738v0.025c0,0.064-0.033,0.629-1.179,0.629h-1v0.015H78.155c-1.043,0-1.892,0.944-1.892,2.105v16.018H55.313h-1&#xD;&#xA;&#x9;&#x9;c-0.664,0-1.322-1.51-1.556-2.935l0,0l-1.243-8.38c-0.147-0.972-0.923-2.022-1.806-2.444l-2.811-1.344&#xD;&#xA;&#x9;&#x9;c-0.73-0.349-1.888-0.611-2.693-0.611h-28.54c-0.821,0-1.985,0.289-2.707,0.672L1.581,54.818C0.679,55.296,0,56.426,0,57.446&#xD;&#xA;&#x9;&#x9;v73.425c0,1.02,0.679,2.149,1.581,2.629l11.378,6.038c0.723,0.383,1.886,0.672,2.707,0.672h28.54c0.804,0,1.962-0.263,2.694-0.612&#xD;&#xA;&#x9;&#x9;l2.809-1.344c0.883-0.421,1.659-1.472,1.807-2.447l1.246-8.4h0c0.192-1.174,0.819-2.911,1.552-2.911h1h20.951v16.017&#xD;&#xA;&#x9;&#x9;c0,1.161,0.849,2.106,1.892,2.106h27.383h1c0.941,0,1.161,0.456,1.179,0.841v11.794h91.633v-11.794&#xD;&#xA;&#x9;&#x9;c0.018-0.385,0.238-0.841,1.18-0.841h1h35.489c0.009,0,0.018-0.003,0.026-0.003c0.277,0.702,0.958,1.202,1.757,1.202h4.054v0.392&#xD;&#xA;&#x9;&#x9;l0.316-0.413c0.944-0.104,1.684-0.898,1.684-1.871v-0.326l2.277-2.973V100.36h30.811c1.207,0,2.189-0.982,2.189-2.189v-8.026&#xD;&#xA;&#x9;&#x9;C280.133,88.938,279.151,87.955,277.944,87.955z M153.521,5.49c4.519,0,8.195,3.676,8.195,8.195c0,4.517-3.676,8.192-8.195,8.192&#xD;&#xA;&#x9;&#x9;s-8.195-3.675-8.195-8.192C145.326,9.167,149.002,5.49,153.521,5.49z"/>
</svg>