<svg version="1.2" baseProfile="tiny" id="EdgeSVG_sXn7J" x="0px" y="0px" width="280.133px" height="155.253px" viewBox="0 0 280.133 155.253" xmlns:xlink="http://www.w3.org/1999/xlink" xmlns="http://www.w3.org/2000/svg">
  <radialGradient id="SVGID_2_" cx="153.5215" cy="13.6836" r="12.6846" gradientUnits="userSpaceOnUse">
    <stop offset="0.7964" style="stop-color:#000000;stop-opacity:0.2"/>
    <stop offset="0.8824" style="stop-color:#FFFFFF;stop-opacity:0.1"/>
    <stop offset="0.8854" style="stop-color:#F7F7F7;stop-opacity:0.1"/>
    <stop offset="0.9286" style="stop-color:#8F8F8F;stop-opacity:0.1"/>
    <stop offset="0.9633" style="stop-color:#424242;stop-opacity:0.1"/>
    <stop offset="0.9878" style="stop-color:#121212;stop-opacity:0.1"/>
    <stop offset="1" style="stop-color:#000000;stop-opacity:0.1"/>
  </radialGradient>
  <path fill="url(#SVGID_2_)" d="M153.521,1c-7.004,0-12.686,5.678-12.686,12.685c0,6.365,4.691,11.636,10.804,12.542&#xD;&#xA;&#x9;&#x9;c0.615,0.092,1.243,0.14,1.882,0.14s1.267-0.047,1.882-0.14c6.112-0.906,10.804-6.178,10.804-12.542&#xD;&#xA;&#x9;&#x9;C166.207,6.678,160.525,1,153.521,1z M153.521,4.49c5.078,0,9.195,4.114,9.195,9.195c0,5.078-4.118,9.192-9.195,9.192&#xD;&#xA;&#x9;&#x9;s-9.195-4.114-9.195-9.192C144.326,8.604,148.444,4.49,153.521,4.49z"/>
  <g>
    <linearGradient id="SVGID_3_" gradientUnits="userSpaceOnUse" x1="219.2197" y1="46.6992" x2="219.2197" y2="141.6187">
      <stop offset="0" style="stop-color:#FFFFFF;stop-opacity:0.05"/>
      <stop offset="0.0166" style="stop-color:#FFFFFF;stop-opacity:0.2"/>
      <stop offset="0.1026" style="stop-color:#FFFFFF;stop-opacity:0.45"/>
      <stop offset="0.2615" style="stop-color:#FFFFFF;stop-opacity:0.25"/>
      <stop offset="0.7225" style="stop-color:#000000;stop-opacity:0.1"/>
      <stop offset="1" style="stop-color:#000000;stop-opacity:0.4"/>
    </linearGradient>
    <path fill="url(#SVGID_3_)" d="M237.91,47.805v92.707c0,0.606-0.401,1.106-0.892,1.106h-36.489V46.699h36.489&#xD;&#xA;&#x9;&#x9;&#x9;C237.509,46.699,237.91,47.195,237.91,47.805z"/>
    <linearGradient id="SVGID_4_" gradientUnits="userSpaceOnUse" x1="91.9009" y1="46.6992" x2="91.9009" y2="141.6187">
      <stop offset="0" style="stop-color:#FFFFFF;stop-opacity:0.05"/>
      <stop offset="0.0166" style="stop-color:#FFFFFF;stop-opacity:0.2"/>
      <stop offset="0.1026" style="stop-color:#FFFFFF;stop-opacity:0.45"/>
      <stop offset="0.2615" style="stop-color:#FFFFFF;stop-opacity:0.25"/>
      <stop offset="0.7225" style="stop-color:#000000;stop-opacity:0.1"/>
      <stop offset="1" style="stop-color:#000000;stop-opacity:0.4"/>
    </linearGradient>
    <path fill="url(#SVGID_4_)" d="M106.538,46.699v94.919H78.155c-0.49,0-0.892-0.5-0.892-1.106V47.805&#xD;&#xA;&#x9;&#x9;&#x9;c0-0.609,0.401-1.105,0.892-1.105H106.538z"/>
    <linearGradient id="SVGID_5_" gradientUnits="userSpaceOnUse" x1="107.6274" y1="45.0552" x2="107.6274" y2="143.4438">
      <stop offset="0" style="stop-color:#FFFFFF;stop-opacity:0.05"/>
      <stop offset="0.0166" style="stop-color:#FFFFFF;stop-opacity:0.2"/>
      <stop offset="0.1026" style="stop-color:#FFFFFF;stop-opacity:0.45"/>
      <stop offset="0.2615" style="stop-color:#FFFFFF;stop-opacity:0.25"/>
      <stop offset="0.7225" style="stop-color:#000000;stop-opacity:0.1"/>
      <stop offset="1" style="stop-color:#000000;stop-opacity:0.4"/>
    </linearGradient>
    <path fill="url(#SVGID_5_)" d="M108.717,45.055v98.388c0,0,0-1.825-2.179-1.825V46.685&#xD;&#xA;&#x9;&#x9;&#x9;C108.717,46.685,108.717,45.055,108.717,45.055z"/>
    <linearGradient id="SVGID_6_" gradientUnits="userSpaceOnUse" x1="199.4395" y1="45.0552" x2="199.4395" y2="143.4438">
      <stop offset="0" style="stop-color:#FFFFFF;stop-opacity:0.05"/>
      <stop offset="0.0166" style="stop-color:#FFFFFF;stop-opacity:0.2"/>
      <stop offset="0.1026" style="stop-color:#FFFFFF;stop-opacity:0.45"/>
      <stop offset="0.2615" style="stop-color:#FFFFFF;stop-opacity:0.25"/>
      <stop offset="0.7225" style="stop-color:#000000;stop-opacity:0.1"/>
      <stop offset="1" style="stop-color:#000000;stop-opacity:0.4"/>
    </linearGradient>
    <path fill="url(#SVGID_6_)" d="M200.529,46.685v94.934c-2.18,0-2.18,1.825-2.18,1.825V45.055&#xD;&#xA;&#x9;&#x9;&#x9;C198.35,45.055,198.35,46.685,200.529,46.685z"/>
  </g>
  <linearGradient id="SVGID_7_" gradientUnits="userSpaceOnUse" x1="106.5381" y1="94.1587" x2="77.2637" y2="94.1587">
    <stop offset="0.9593" style="stop-color:#000000;stop-opacity:0"/>
    <stop offset="1" style="stop-color:#000000;stop-opacity:0.25"/>
  </linearGradient>
  <path fill="url(#SVGID_7_)" d="M106.538,46.699v94.919H78.155c-0.49,0-0.892-0.5-0.892-1.106V47.805&#xD;&#xA;&#x9;&#x9;c0-0.609,0.401-1.105,0.892-1.105H106.538z"/>
  <linearGradient id="SVGID_8_" gradientUnits="userSpaceOnUse" x1="200.5293" y1="94.1587" x2="237.9102" y2="94.1587">
    <stop offset="0.6998" style="stop-color:#000000;stop-opacity:0"/>
    <stop offset="0.9576" style="stop-color:#000000;stop-opacity:0.2147"/>
    <stop offset="1" style="stop-color:#000000;stop-opacity:0.25"/>
  </linearGradient>
  <path fill="url(#SVGID_8_)" d="M237.91,47.805v92.707c0,0.606-0.401,1.106-0.892,1.106h-36.489V46.699h36.489&#xD;&#xA;&#x9;&#x9;C237.509,46.699,237.91,47.195,237.91,47.805z"/>
  <linearGradient id="SVGID_9_" gradientUnits="userSpaceOnUse" x1="106.5381" y1="94.249" x2="108.7168" y2="94.249">
    <stop offset="0" style="stop-color:#000000;stop-opacity:0"/>
    <stop offset="1" style="stop-color:#000000;stop-opacity:0.25"/>
  </linearGradient>
  <path fill="url(#SVGID_9_)" d="M108.717,45.055v98.388c0,0,0-1.825-2.179-1.825V46.685&#xD;&#xA;&#x9;&#x9;C108.717,46.685,108.717,45.055,108.717,45.055z"/>
  <linearGradient id="SVGID_10_" gradientUnits="userSpaceOnUse" x1="200.5293" y1="94.2495" x2="198.3496" y2="94.2495">
    <stop offset="0" style="stop-color:#000000;stop-opacity:0"/>
    <stop offset="1" style="stop-color:#000000;stop-opacity:0.25"/>
  </linearGradient>
  <path fill="url(#SVGID_10_)" d="M200.529,46.685v94.934c-2.18,0-2.18,1.825-2.18,1.825V45.055&#xD;&#xA;&#x9;&#x9;C198.35,45.055,198.35,46.685,200.529,46.685z"/>
  <linearGradient id="SVGID_11_" gradientUnits="userSpaceOnUse" x1="138.4697" y1="144.998" x2="168.5972" y2="144.998">
    <stop offset="0.1176" style="stop-color:#FFFFFF;stop-opacity:0.25"/>
    <stop offset="1" style="stop-color:#FFFFFF;stop-opacity:0.1"/>
  </linearGradient>
  <path fill="url(#SVGID_11_)" d="M168.597,141.243v7.51H138.47v-2.227h26.426c1.665,0,3.184-1.237,3.38-2.756L168.597,141.243z"/>
  <path fill="#D4145A" d="M194.152,127.154c0.006,0.009,0.021,0.016,0.038,0.016h-0.023&#xD;&#xA;&#x9;&#x9;C194.158,127.167,194.152,127.161,194.152,127.154z"/>
  <linearGradient id="SVGID_12_" gradientUnits="userSpaceOnUse" x1="153.5332" y1="37.8188" x2="153.5332" y2="49.1079">
    <stop offset="0" style="stop-color:#FFFFFF;stop-opacity:0.35"/>
    <stop offset="0.0241" style="stop-color:#FFFFFF;stop-opacity:0.4"/>
    <stop offset="0.0498" style="stop-color:#FFFFFF;stop-opacity:0.3"/>
    <stop offset="0.0562" style="stop-color:#E5E5E5;stop-opacity:0.2843"/>
    <stop offset="0.0774" style="stop-color:#959595;stop-opacity:0.2321"/>
    <stop offset="0.0963" style="stop-color:#555555;stop-opacity:0.1857"/>
    <stop offset="0.1121" style="stop-color:#272727;stop-opacity:0.1469"/>
    <stop offset="0.1242" style="stop-color:#0B0B0B;stop-opacity:0.1171"/>
    <stop offset="0.1312" style="stop-color:#000000;stop-opacity:0.1"/>
    <stop offset="0.5673" style="stop-color:#000000;stop-opacity:0.0574"/>
    <stop offset="0.6425" style="stop-color:#000000;stop-opacity:0.05"/>
    <stop offset="0.8462" style="stop-color:#FFFFFF;stop-opacity:0.2"/>
    <stop offset="1" style="stop-color:#FFFFFF;stop-opacity:0.25"/>
  </linearGradient>
  <path fill="url(#SVGID_12_)" d="M198.35,46.823v2.253c0,0.235-0.649-0.875-1.439-2.277c-0.57-1.009-1.213-2.171-1.734-3.087&#xD;&#xA;&#x9;&#x9;c-0.534-0.932-0.942-1.608-1.024-1.608h-81.236c-0.081,0-0.49,0.676-1.024,1.608c-0.521,0.917-1.165,2.079-1.734,3.087&#xD;&#xA;&#x9;&#x9;c-0.79,1.402-1.44,2.513-1.44,2.277v-2.253c0-0.17,0.557-1.224,1.265-2.518c0.229-0.419,0.475-0.865,0.722-1.312&#xD;&#xA;&#x9;&#x9;c1.092-1.977,2.227-4.019,2.227-4.253c0-0.451,0-0.451,0-0.905c0-0.012-0.003-0.018-0.009-0.018h81.223&#xD;&#xA;&#x9;&#x9;c-0.005,0-0.008,0.005-0.008,0.018c0,0.454,0,0.454,0,0.905c0,0.234,1.135,2.276,2.226,4.253c0.248,0.446,0.494,0.893,0.723,1.312&#xD;&#xA;&#x9;&#x9;C197.794,45.599,198.35,46.653,198.35,46.823z"/>
  <linearGradient id="SVGID_13_" gradientUnits="userSpaceOnUse" x1="153.5332" y1="42.1035" x2="153.5332" y2="54.5654">
    <stop offset="0" style="stop-color:#FFFFFF;stop-opacity:0.3"/>
    <stop offset="0.0241" style="stop-color:#FFFFFF;stop-opacity:0.35"/>
    <stop offset="0.0709" style="stop-color:#FFFFFF;stop-opacity:0.3"/>
    <stop offset="0.0807" style="stop-color:#E5E5E5;stop-opacity:0.2882"/>
    <stop offset="0.1134" style="stop-color:#959595;stop-opacity:0.249"/>
    <stop offset="0.1424" style="stop-color:#555555;stop-opacity:0.2143"/>
    <stop offset="0.1667" style="stop-color:#272727;stop-opacity:0.1852"/>
    <stop offset="0.1854" style="stop-color:#0B0B0B;stop-opacity:0.1629"/>
    <stop offset="0.1961" style="stop-color:#000000;stop-opacity:0.15"/>
    <stop offset="0.5949" style="stop-color:#000000;stop-opacity:0.1074"/>
    <stop offset="0.6637" style="stop-color:#000000;stop-opacity:0.1"/>
    <stop offset="0.8763" style="stop-color:#FFFFFF;stop-opacity:0.2"/>
    <stop offset="1" style="stop-color:#FFFFFF;stop-opacity:0.2"/>
  </linearGradient>
  <path fill="url(#SVGID_13_)" d="M198.35,51.481v3.038c0,0.367-1.471-1.541-2.675-3.038c-0.735-0.914-1.369-1.675-1.509-1.675&#xD;&#xA;&#x9;&#x9;h-81.264c-0.141,0-0.774,0.761-1.509,1.675c-1.204,1.498-2.675,3.405-2.675,3.038v-3.038c0-0.165,0.317-0.81,0.778-1.675&#xD;&#xA;&#x9;&#x9;c0.464-0.875,1.076-1.966,1.652-3.008c0.704-1.271,1.357-2.464,1.638-3.087c0.094-0.208,0.146-0.351,0.146-0.416&#xD;&#xA;&#x9;&#x9;c0-0.581,0-0.581,0-1.161c0-0.021-0.005-0.031-0.016-0.031h81.236c-0.01,0-0.015,0.009-0.015,0.031c0,0.581,0,0.581,0,1.161&#xD;&#xA;&#x9;&#x9;c0,0.065,0.052,0.208,0.145,0.416c0.281,0.624,0.935,1.816,1.638,3.087c0.577,1.042,1.188,2.133,1.653,3.008&#xD;&#xA;&#x9;&#x9;C198.033,50.672,198.35,51.316,198.35,51.481z"/>
  <linearGradient id="SVGID_14_" gradientUnits="userSpaceOnUse" x1="153.5332" y1="49.8066" x2="153.5332" y2="62.7056">
    <stop offset="0" style="stop-color:#FFFFFF;stop-opacity:0.35"/>
    <stop offset="0.0241" style="stop-color:#FFFFFF;stop-opacity:0.25"/>
    <stop offset="0.0875" style="stop-color:#FFFFFF;stop-opacity:0.25"/>
    <stop offset="0.096" style="stop-color:#E5E5E5;stop-opacity:0.2461"/>
    <stop offset="0.1244" style="stop-color:#959595;stop-opacity:0.233"/>
    <stop offset="0.1496" style="stop-color:#555555;stop-opacity:0.2214"/>
    <stop offset="0.1706" style="stop-color:#272727;stop-opacity:0.2117"/>
    <stop offset="0.1868" style="stop-color:#0B0B0B;stop-opacity:0.2043"/>
    <stop offset="0.1961" style="stop-color:#000000;stop-opacity:0.2"/>
    <stop offset="0.4225" style="stop-color:#000000;stop-opacity:0.1147"/>
    <stop offset="0.4615" style="stop-color:#000000;stop-opacity:0.1"/>
    <stop offset="0.6139" style="stop-color:#FFFFFF;stop-opacity:0.15"/>
    <stop offset="1" style="stop-color:#FFFFFF;stop-opacity:0.15"/>
  </linearGradient>
  <path fill="url(#SVGID_14_)" d="M198.35,57.567v5.074c0,0.593-3.663-3.078-4.158-3.078h-81.316c-0.495,0-4.158,3.671-4.158,3.078&#xD;&#xA;&#x9;&#x9;v-5.074c0-0.543,3.227-4.662,4.034-6.085c0.114-0.205,0.18-0.352,0.18-0.428c0-0.602,0-0.602,0-1.204&#xD;&#xA;&#x9;&#x9;c0-0.031-0.01-0.042-0.029-0.042h81.264c-0.019,0-0.029,0.012-0.029,0.042c0,0.602,0,0.602,0,1.204c0,0.077,0.066,0.223,0.18,0.428&#xD;&#xA;&#x9;&#x9;C195.124,52.905,198.35,57.023,198.35,57.567z"/>
  <linearGradient id="SVGID_15_" gradientUnits="userSpaceOnUse" x1="153.5332" y1="59.5625" x2="153.5332" y2="71.8071">
    <stop offset="0" style="stop-color:#FFFFFF;stop-opacity:0.35"/>
    <stop offset="0.0241" style="stop-color:#FFFFFF;stop-opacity:0.2"/>
    <stop offset="0.0875" style="stop-color:#FFFFFF;stop-opacity:0.2"/>
    <stop offset="0.096" style="stop-color:#E5E5E5;stop-opacity:0.2039"/>
    <stop offset="0.1244" style="stop-color:#959595;stop-opacity:0.217"/>
    <stop offset="0.1496" style="stop-color:#555555;stop-opacity:0.2286"/>
    <stop offset="0.1706" style="stop-color:#272727;stop-opacity:0.2383"/>
    <stop offset="0.1868" style="stop-color:#0B0B0B;stop-opacity:0.2457"/>
    <stop offset="0.1961" style="stop-color:#000000;stop-opacity:0.25"/>
    <stop offset="0.4714" style="stop-color:#000000;stop-opacity:0.0794"/>
    <stop offset="0.5189" style="stop-color:#000000;stop-opacity:0.05"/>
    <stop offset="0.5596" style="stop-color:#000000;stop-opacity:0"/>
    <stop offset="0.5611" style="stop-color:#FFFFFF;stop-opacity:0"/>
    <stop offset="0.6078" style="stop-color:#FFFFFF;stop-opacity:0.1"/>
    <stop offset="1" style="stop-color:#FFFFFF;stop-opacity:0.1"/>
  </linearGradient>
  <path fill="url(#SVGID_15_)" d="M198.35,65.789v5.922c0,0.59-3.423-1.721-4.099-1.721h-81.434c-0.676,0-4.1,2.311-4.1,1.721v-5.922&#xD;&#xA;&#x9;&#x9;c0-0.636,4.214-4.31,4.214-4.927c0-0.621,0-0.621,0-1.238c0-0.042-0.019-0.061-0.056-0.061h81.316&#xD;&#xA;&#x9;&#x9;c-0.036,0-0.055,0.019-0.055,0.061c0,0.618,0,0.618,0,1.238C194.136,61.479,198.35,65.153,198.35,65.789z"/>
  <path fill="#D4145A" d="M194.19,127.17h-0.023c-0.009-0.003-0.015-0.009-0.015-0.016C194.158,127.163,194.173,127.17,194.19,127.17&#xD;&#xA;&#x9;&#x9;z"/>
  <path fill="#D4145A" d="M194.152,127.154c0.006,0.009,0.021,0.016,0.038,0.016h-0.023&#xD;&#xA;&#x9;&#x9;C194.158,127.167,194.152,127.161,194.152,127.154z"/>
  <path fill="#D4145A" d="M194.19,127.17h-0.023c-0.009-0.003-0.015-0.009-0.015-0.016C194.158,127.163,194.173,127.17,194.19,127.17&#xD;&#xA;&#x9;&#x9;z"/>
  <path fill="#D4145A" d="M194.19,127.17h-0.023c-0.009-0.003-0.015-0.009-0.015-0.016C194.158,127.163,194.173,127.17,194.19,127.17&#xD;&#xA;&#x9;&#x9;z"/>
  <path fill="#D4145A" d="M194.19,127.17h-0.023c-0.009-0.003-0.015-0.009-0.015-0.016C194.158,127.163,194.173,127.17,194.19,127.17&#xD;&#xA;&#x9;&#x9;z"/>
  <path fill="#006092" d="M112.915,127.154v0.003c-0.003,0.006-0.009,0.01-0.016,0.013h-0.023&#xD;&#xA;&#x9;&#x9;C112.894,127.17,112.909,127.163,112.915,127.154z"/>
  <linearGradient id="SVGID_16_" gradientUnits="userSpaceOnUse" x1="153.5332" y1="69.9917" x2="153.5332" y2="81.6997">
    <stop offset="0" style="stop-color:#FFFFFF;stop-opacity:0.35"/>
    <stop offset="0.0241" style="stop-color:#FFFFFF;stop-opacity:0.15"/>
    <stop offset="0.0875" style="stop-color:#FFFFFF;stop-opacity:0.15"/>
    <stop offset="0.096" style="stop-color:#E5E5E5;stop-opacity:0.1618"/>
    <stop offset="0.1244" style="stop-color:#959595;stop-opacity:0.201"/>
    <stop offset="0.1496" style="stop-color:#555555;stop-opacity:0.2357"/>
    <stop offset="0.1706" style="stop-color:#272727;stop-opacity:0.2648"/>
    <stop offset="0.1868" style="stop-color:#0B0B0B;stop-opacity:0.2871"/>
    <stop offset="0.1961" style="stop-color:#000000;stop-opacity:0.3"/>
    <stop offset="0.4919" style="stop-color:#000000;stop-opacity:0.0868"/>
    <stop offset="0.543" style="stop-color:#000000;stop-opacity:0.05"/>
    <stop offset="0.5837" style="stop-color:#000000;stop-opacity:0"/>
    <stop offset="0.5867" style="stop-color:#FFFFFF;stop-opacity:0"/>
    <stop offset="0.6652" style="stop-color:#FFFFFF;stop-opacity:0.05"/>
    <stop offset="1" style="stop-color:#FFFFFF;stop-opacity:0.05"/>
  </linearGradient>
  <path fill="url(#SVGID_16_)" d="M198.35,74.87v6.659c0,0.532-2.696-0.348-3.775-0.389c-0.057-0.003-0.11-0.003-0.157,0h-26.141&#xD;&#xA;&#x9;&#x9;c-0.024-0.155-0.056-0.306-0.104-0.449c-0.404-1.302-1.778-2.304-3.276-2.304h-46.211c-1.499,0-2.875,1.002-3.276,2.304&#xD;&#xA;&#x9;&#x9;c-0.048,0.143-0.083,0.294-0.099,0.449h-2.66c-0.048-0.003-0.102-0.003-0.158,0c-0.425,0.018-1.103,0.164-1.766,0.3&#xD;&#xA;&#x9;&#x9;c-0.146,0.03-0.288,0.06-0.431,0.089c-0.301,0.06-0.586,0.113-0.83,0.143c-0.021,0.003-0.041,0.006-0.062,0.006&#xD;&#xA;&#x9;&#x9;c-0.021,0.003-0.039,0.006-0.06,0.006c-0.083,0.006-0.158,0.012-0.226,0.012h-0.015c-0.068,0-0.131-0.003-0.182-0.012&#xD;&#xA;&#x9;&#x9;c-0.015,0-0.026-0.002-0.038-0.009c-0.006,0.003-0.012,0-0.019-0.003c-0.006,0-0.012,0-0.018-0.003&#xD;&#xA;&#x9;&#x9;c-0.006-0.003-0.012-0.003-0.018-0.006c-0.009-0.003-0.015-0.006-0.024-0.012c-0.015-0.006-0.03-0.015-0.039-0.023&#xD;&#xA;&#x9;&#x9;s-0.018-0.015-0.024-0.024c-0.018-0.021-0.027-0.044-0.027-0.075V74.87c0-0.651,4.213-2.896,4.213-3.528c0-0.63,0-0.63,0-1.264&#xD;&#xA;&#x9;&#x9;c0-0.06-0.042-0.086-0.113-0.086h81.434c-0.071,0-0.113,0.027-0.113,0.086c0,0.633,0,0.633,0,1.264&#xD;&#xA;&#x9;&#x9;C194.137,71.975,198.35,74.219,198.35,74.87z"/>
  <linearGradient id="SVGID_17_" gradientUnits="userSpaceOnUse" x1="153.5332" y1="81.1401" x2="153.5332" y2="91.8066">
    <stop offset="0" style="stop-color:#FFFFFF;stop-opacity:0.25"/>
    <stop offset="0.0241" style="stop-color:#FFFFFF;stop-opacity:0.1"/>
    <stop offset="0.0995" style="stop-color:#FFFFFF;stop-opacity:0.1"/>
    <stop offset="0.1078" style="stop-color:#E5E5E5;stop-opacity:0.1197"/>
    <stop offset="0.1354" style="stop-color:#959595;stop-opacity:0.1849"/>
    <stop offset="0.1599" style="stop-color:#555555;stop-opacity:0.2429"/>
    <stop offset="0.1804" style="stop-color:#272727;stop-opacity:0.2914"/>
    <stop offset="0.1961" style="stop-color:#0B0B0B;stop-opacity:0.3286"/>
    <stop offset="0.2051" style="stop-color:#000000;stop-opacity:0.35"/>
    <stop offset="0.4061" style="stop-color:#000000;stop-opacity:0.1219"/>
    <stop offset="0.4253" style="stop-color:#000000;stop-opacity:0.1"/>
    <stop offset="0.816" style="stop-color:#000000;stop-opacity:0"/>
    <stop offset="0.9231" style="stop-color:#FFFFFF;stop-opacity:0"/>
    <stop offset="1" style="stop-color:#FFFFFF;stop-opacity:0.05"/>
  </linearGradient>
  <path fill="url(#SVGID_17_)" d="M115.311,81.14c0,0.003,0,0.003,0,0.006l-1.329,10.661h-5.265v-6.903&#xD;&#xA;&#x9;&#x9;c0-0.071,0.051-0.149,0.14-0.226c0.027-0.026,0.054-0.047,0.086-0.071c0.065-0.047,0.14-0.095,0.226-0.143&#xD;&#xA;&#x9;&#x9;c0.042-0.026,0.086-0.051,0.134-0.074c0.047-0.024,0.095-0.051,0.148-0.074c0.077-0.039,0.158-0.077,0.241-0.113&#xD;&#xA;&#x9;&#x9;c0.226-0.104,0.479-0.205,0.737-0.309c0.229-0.092,0.461-0.181,0.69-0.273c0.324-0.131,0.642-0.259,0.916-0.383&#xD;&#xA;&#x9;&#x9;c0.057-0.027,0.11-0.051,0.161-0.074c0.051-0.024,0.101-0.051,0.148-0.075c0.354-0.181,0.586-0.351,0.586-0.502&#xD;&#xA;&#x9;&#x9;c0-0.642,0-0.642,0-1.287c0-0.036-0.015-0.065-0.042-0.089c-0.006-0.009-0.018-0.018-0.032-0.024&#xD;&#xA;&#x9;&#x9;c-0.048-0.026-0.119-0.042-0.205-0.044H115.311z M194.137,82.585c0-0.642,0-0.642,0-1.284c0-0.101,0.104-0.151,0.28-0.161h-26.141&#xD;&#xA;&#x9;&#x9;c0,0.003,0,0.003,0,0.006l1.353,10.661h28.721v-6.899C198.35,84.244,194.137,83.227,194.137,82.585z"/>
  <linearGradient id="SVGID_18_" gradientUnits="userSpaceOnUse" x1="142.0283" y1="80.6914" x2="142.0283" y2="143.8774">
    <stop offset="0" style="stop-color:#FFFFFF;stop-opacity:0.05"/>
    <stop offset="0.001" style="stop-color:#FFFFFF;stop-opacity:0.0577"/>
    <stop offset="0.0271" style="stop-color:#FFFFFF;stop-opacity:0.25"/>
    <stop offset="0.0354" style="stop-color:#FFFFFF;stop-opacity:0.2386"/>
    <stop offset="0.0995" style="stop-color:#FFFFFF;stop-opacity:0.15"/>
    <stop offset="0.2308" style="stop-color:#FFFFFF;stop-opacity:0.25"/>
    <stop offset="0.2405" style="stop-color:#E3E3E3;stop-opacity:0.2414"/>
    <stop offset="0.2697" style="stop-color:#939393;stop-opacity:0.2156"/>
    <stop offset="0.2957" style="stop-color:#545454;stop-opacity:0.1926"/>
    <stop offset="0.3175" style="stop-color:#272727;stop-opacity:0.1734"/>
    <stop offset="0.3342" style="stop-color:#0A0A0A;stop-opacity:0.1586"/>
    <stop offset="0.3439" style="stop-color:#000000;stop-opacity:0.15"/>
    <stop offset="0.6697" style="stop-color:#000000;stop-opacity:0.1"/>
    <stop offset="0.9623" style="stop-color:#000000;stop-opacity:0.2"/>
    <stop offset="1" style="stop-color:#000000;stop-opacity:0.35"/>
  </linearGradient>
  <path fill="url(#SVGID_18_)" d="M161.257,128.858c0.883,5.185,1.748,10.197,2.453,14.252c-0.393,0.464-1.008,0.767-1.701,0.767&#xD;&#xA;&#x9;&#x9;h-40.151c-0.56,0-1.073-0.192-1.454-0.522c0.788-4.534,1.781-10.305,2.783-16.185c0.511-3.003,1.026-6.035,1.513-8.946&#xD;&#xA;&#x9;&#x9;c0.051-0.297,0.101-0.591,0.148-0.886c0.634-3.761,1.216-7.292,1.695-10.259c0.747-4.638,1.231-7.908,1.231-8.56&#xD;&#xA;&#x9;&#x9;c0-0.163-0.036-0.39-0.102-0.666c-0.071-0.314-0.19-0.701-0.342-1.141c-0.431-1.267-1.147-2.991-1.998-4.906&#xD;&#xA;&#x9;&#x9;c-1.525-3.434-3.481-7.477-4.995-10.542c0.048-0.044,0.098-0.086,0.148-0.125c0.375-0.282,0.854-0.449,1.371-0.449h40.151&#xD;&#xA;&#x9;&#x9;c0.518,0,0.996,0.169,1.368,0.449c0.128,0.098,0.244,0.208,0.342,0.327c-0.88,1.787-1.903,3.885-2.899,5.996&#xD;&#xA;&#x9;&#x9;c-0.25,0.529-0.497,1.055-0.74,1.582c-0.438,0.942-0.859,1.873-1.255,2.762c-0.851,1.915-1.567,3.639-2.001,4.906&#xD;&#xA;&#x9;&#x9;c-0.151,0.44-0.265,0.827-0.342,1.141c-0.065,0.276-0.098,0.503-0.098,0.666c0,0.651,0.485,3.921,1.231,8.56&#xD;&#xA;&#x9;&#x9;c0.479,2.967,1.062,6.498,1.688,10.259c0.051,0.295,0.098,0.589,0.148,0.886c0.134,0.797,0.271,1.605,0.407,2.418&#xD;&#xA;&#x9;&#x9;c0.093,0.541,0.185,1.088,0.277,1.632c0.184,1.094,0.372,2.193,0.559,3.294c0.089,0.535,0.181,1.07,0.271,1.603&#xD;&#xA;&#x9;&#x9;c0.003,0.003,0.003,0.003,0.003,0.003c0.003,0.015,0.003,0.029,0.006,0.041C161.07,127.765,161.162,128.312,161.257,128.858z"/>
  <linearGradient id="SVGID_19_" gradientUnits="userSpaceOnUse" x1="153.5332" y1="91.8066" x2="153.5332" y2="96.7124">
    <stop offset="0" style="stop-color:#FFFFFF;stop-opacity:0.05"/>
    <stop offset="0.0315" style="stop-color:#FFFFFF;stop-opacity:0.0941"/>
    <stop offset="0.2142" style="stop-color:#FFFFFF;stop-opacity:0.35"/>
    <stop offset="0.3122" style="stop-color:#FFFFFF;stop-opacity:0.1"/>
    <stop offset="0.6275" style="stop-color:#000000;stop-opacity:0"/>
    <stop offset="0.7421" style="stop-color:#000000;stop-opacity:0.35"/>
    <stop offset="0.9774" style="stop-color:#000000;stop-opacity:0.1219"/>
    <stop offset="1" style="stop-color:#000000;stop-opacity:0.1"/>
  </linearGradient>
  <path fill="url(#SVGID_19_)" d="M198.35,96.712h-28.097l-0.624-4.906h28.721c0,0.818-4.212,0.818-4.212,1.636&#xD;&#xA;&#x9;&#x9;c0,0.817,0,0.817,0,1.635S198.35,95.895,198.35,96.712z M108.717,91.807c0,0.075,0.039,0.146,0.104,0.208&#xD;&#xA;&#x9;&#x9;c0.023,0.021,0.047,0.042,0.077,0.063c0.015,0.008,0.029,0.018,0.044,0.03c0.033,0.018,0.068,0.035,0.104,0.057&#xD;&#xA;&#x9;&#x9;c0.47,0.229,1.358,0.374,2.167,0.538c0.065,0.012,0.131,0.024,0.193,0.039c0.125,0.027,0.25,0.054,0.366,0.081&#xD;&#xA;&#x9;&#x9;c0.06,0.015,0.116,0.027,0.172,0.042s0.113,0.029,0.164,0.045c0.056,0.015,0.112,0.032,0.163,0.05&#xD;&#xA;&#x9;&#x9;c0.057,0.015,0.107,0.033,0.154,0.053c0.021,0.006,0.042,0.015,0.06,0.024c0.146,0.06,0.262,0.125,0.339,0.199&#xD;&#xA;&#x9;&#x9;c0.068,0.063,0.104,0.131,0.104,0.206c0,0.82,0,0.82,0,1.635c0,0.077-0.036,0.146-0.104,0.211&#xD;&#xA;&#x9;&#x9;c-0.023,0.021-0.047,0.042-0.077,0.063c-0.015,0.009-0.029,0.018-0.044,0.03c-0.033,0.018-0.068,0.036-0.104,0.057&#xD;&#xA;&#x9;&#x9;c-0.47,0.229-1.358,0.375-2.17,0.538c-0.065,0.012-0.127,0.024-0.193,0.039c-0.081,0.015-0.158,0.033-0.235,0.05&#xD;&#xA;&#x9;&#x9;c-0.151,0.036-0.297,0.072-0.434,0.107c-0.102,0.027-0.196,0.057-0.286,0.089c-0.044,0.015-0.086,0.03-0.125,0.047&#xD;&#xA;&#x9;&#x9;c-0.039,0.015-0.075,0.033-0.11,0.051c-0.095,0.045-0.172,0.095-0.226,0.148c-0.068,0.063-0.104,0.131-0.104,0.206v0.003h4.652&#xD;&#xA;&#x9;&#x9;l0.613-4.906H108.717z"/>
  <path fill="#006092" d="M112.915,127.154v0.003c-0.003,0.006-0.009,0.01-0.016,0.013h-0.023&#xD;&#xA;&#x9;&#x9;C112.894,127.17,112.909,127.163,112.915,127.154z"/>
  <path fill="#006092" d="M111.939,107.017c-0.14-0.021-0.291-0.051-0.446-0.08C111.648,106.966,111.8,106.993,111.939,107.017z"/>
  <linearGradient id="SVGID_20_" gradientUnits="userSpaceOnUse" x1="153.5332" y1="106.5215" x2="153.5332" y2="117.3379">
    <stop offset="0" style="stop-color:#000000;stop-opacity:0.2"/>
    <stop offset="0.4646" style="stop-color:#000000;stop-opacity:0"/>
    <stop offset="0.4962" style="stop-color:#FFFFFF;stop-opacity:0"/>
    <stop offset="0.6772" style="stop-color:#FFFFFF;stop-opacity:0.3"/>
    <stop offset="0.8273" style="stop-color:#FFFFFF;stop-opacity:0.1285"/>
    <stop offset="0.8522" style="stop-color:#FFFFFF;stop-opacity:0.1"/>
    <stop offset="0.9457" style="stop-color:#000000;stop-opacity:0"/>
    <stop offset="1" style="stop-color:#000000;stop-opacity:0.25"/>
  </linearGradient>
  <path fill="url(#SVGID_20_)" d="M111.675,110.304c-0.151,1.201-0.181,3-0.089,4.451c-0.155-0.107-0.315-0.217-0.476-0.33&#xD;&#xA;&#x9;&#x9;c-0.083-0.057-0.164-0.109-0.247-0.17c-0.342-0.231-0.687-0.469-0.996-0.692c-0.06-0.042-0.119-0.086-0.175-0.128&#xD;&#xA;&#x9;&#x9;c-0.229-0.169-0.434-0.327-0.594-0.476c-0.057-0.051-0.11-0.099-0.155-0.143c-0.125-0.125-0.202-0.235-0.22-0.321&#xD;&#xA;&#x9;&#x9;c-0.006-0.015-0.006-0.026-0.006-0.038v-5.765c0-0.148,0.211-0.188,0.538-0.164c0.113,0.01,0.238,0.024,0.375,0.042&#xD;&#xA;&#x9;&#x9;c0.137,0.021,0.282,0.048,0.434,0.074c0.077,0.013,0.155,0.026,0.232,0.045c0.157,0.03,0.317,0.063,0.481,0.098&#xD;&#xA;&#x9;&#x9;c0.16,0.036,0.324,0.069,0.481,0.102c0.08,0.018,0.16,0.032,0.235,0.048c0.155,0.029,0.306,0.059,0.446,0.08&#xD;&#xA;&#x9;&#x9;c0.048,0.009,0.095,0.015,0.143,0.021L111.675,110.304z M194.574,107.079c-0.057,0.003-0.11,0.003-0.157,0H171.57l0.333,2.619&#xD;&#xA;&#x9;&#x9;c0.193,1.519,0.193,3.998,0,5.518l-0.268,2.122h22.614c-0.071,0-0.113-0.026-0.113-0.089c0-0.633,0-0.633,0-1.261&#xD;&#xA;&#x9;&#x9;c0-0.633,4.212-2.881,4.212-3.531v-5.765C198.35,106.16,195.653,107.037,194.574,107.079z"/>
  <path fill="#006092" d="M112.463,114.903c-0.015-0.193-0.027-0.398-0.036-0.606C112.439,114.505,112.448,114.707,112.463,114.903z"/>
  <path fill="#006092" d="M165.583,112.784c-0.033,0.146-0.047,0.3-0.047,0.454c0,0.155,0.015,0.31,0.047,0.455&#xD;&#xA;&#x9;&#x9;c-0.03-0.146-0.044-0.3-0.044-0.455C165.538,113.084,165.553,112.93,165.583,112.784z M168.472,115.399&#xD;&#xA;&#x9;&#x9;c0.143-0.041,0.28-0.101,0.408-0.172C168.752,115.299,168.615,115.355,168.472,115.399z M168.472,111.071&#xD;&#xA;&#x9;&#x9;c0.143,0.045,0.28,0.104,0.408,0.173C168.752,111.173,168.615,111.112,168.472,111.071z M170.458,113.17v0.137&#xD;&#xA;&#x9;&#x9;c0.003-0.023,0.003-0.044,0.003-0.068C170.461,113.215,170.461,113.194,170.458,113.17z"/>
  <linearGradient id="SVGID_21_" gradientUnits="userSpaceOnUse" x1="153.5332" y1="96.7124" x2="153.5332" y2="107.0796">
    <stop offset="0" style="stop-color:#000000;stop-opacity:0.1"/>
    <stop offset="0.5354" style="stop-color:#000000;stop-opacity:0"/>
    <stop offset="0.5777" style="stop-color:#FFFFFF;stop-opacity:0"/>
    <stop offset="0.7059" style="stop-color:#FFFFFF;stop-opacity:0.35"/>
    <stop offset="0.8314" style="stop-color:#FFFFFF;stop-opacity:0.1356"/>
    <stop offset="0.8522" style="stop-color:#FFFFFF;stop-opacity:0.1"/>
    <stop offset="0.9457" style="stop-color:#000000;stop-opacity:0"/>
    <stop offset="1" style="stop-color:#000000;stop-opacity:0.25"/>
  </linearGradient>
  <path fill="url(#SVGID_21_)" d="M113.369,96.712l-0.143,1.141l-0.906,7.266c-0.036-0.018-0.074-0.039-0.113-0.056&#xD;&#xA;&#x9;&#x9;c-0.054-0.027-0.113-0.054-0.172-0.081c-0.053-0.023-0.11-0.05-0.169-0.074c-0.767-0.336-1.784-0.692-2.453-1.022&#xD;&#xA;&#x9;&#x9;c-0.036-0.018-0.068-0.036-0.101-0.053c-0.003,0-0.006,0-0.009-0.003c-0.03-0.015-0.06-0.029-0.086-0.047&#xD;&#xA;&#x9;&#x9;c-0.096-0.051-0.182-0.104-0.253-0.155c-0.065-0.044-0.119-0.089-0.158-0.134c-0.03-0.032-0.05-0.063-0.065-0.092&#xD;&#xA;&#x9;&#x9;c-0.009-0.015-0.015-0.03-0.018-0.045s-0.006-0.026-0.006-0.041v-6.603H113.369z M170.253,96.712l0.143,1.141l1.175,9.226h22.847&#xD;&#xA;&#x9;&#x9;c-0.176-0.01-0.28-0.057-0.28-0.158c0-0.645,0-0.645,0-1.287c0-0.642,4.212-1.656,4.212-2.318v-6.603H170.253z"/>
  <path fill="#006092" d="M111.939,107.017c-0.14-0.021-0.291-0.051-0.446-0.08C111.648,106.966,111.8,106.993,111.939,107.017z"/>
  <path fill="#006092" d="M112.915,127.154v0.003c-0.003,0.006-0.009,0.01-0.016,0.013h-0.023&#xD;&#xA;&#x9;&#x9;C112.894,127.17,112.909,127.163,112.915,127.154z"/>
  <path fill="#006092" d="M112.915,127.154v0.003c-0.003,0.006-0.009,0.01-0.016,0.013h-0.023&#xD;&#xA;&#x9;&#x9;C112.894,127.17,112.909,127.163,112.915,127.154z"/>
  <linearGradient id="SVGID_22_" gradientUnits="userSpaceOnUse" x1="108.7168" y1="139.1416" x2="198.3496" y2="139.1416">
    <stop offset="0" style="stop-color:#000000;stop-opacity:0.25"/>
    <stop offset="0.0151" style="stop-color:#000000;stop-opacity:0"/>
    <stop offset="0.9849" style="stop-color:#000000;stop-opacity:0"/>
    <stop offset="1" style="stop-color:#000000;stop-opacity:0.25"/>
  </linearGradient>
  <path fill="url(#SVGID_22_)" d="M198.35,124.096v30.157h-89.633v-30.157c0-0.06,0.039-0.077,0.107-0.057&#xD;&#xA;&#x9;&#x9;c0.021,0.003,0.041,0.012,0.062,0.024c0.045,0.02,0.098,0.05,0.161,0.089c0.03,0.018,0.063,0.038,0.095,0.063&#xD;&#xA;&#x9;&#x9;c0.375,0.255,0.945,0.743,1.534,1.251c0.11,0.096,0.22,0.19,0.327,0.283c0.146,0.127,0.292,0.252,0.431,0.371&#xD;&#xA;&#x9;&#x9;c0.134,0.113,0.262,0.223,0.383,0.324c0.078,0.065,0.155,0.128,0.227,0.188c0.023,0.015,0.044,0.032,0.065,0.05&#xD;&#xA;&#x9;&#x9;c0.047,0.039,0.092,0.075,0.133,0.104c0.262,0.202,0.467,0.342,0.583,0.377c0.021,0.007,0.036,0.01,0.051,0.01&#xD;&#xA;&#x9;&#x9;c0.009,0,0.018,0,0.023-0.003h0.253l2.149,16.601c0.193,1.519,1.716,2.756,3.383,2.756h19.785v2.227h30.127v-7.51l1.79-14.073&#xD;&#xA;&#x9;&#x9;h23.78c0.006,0.003,0.015,0.003,0.023,0.003c0.102,0,0.33-0.152,0.634-0.387c0.041-0.029,0.086-0.065,0.134-0.104&#xD;&#xA;&#x9;&#x9;c0.021-0.018,0.042-0.035,0.065-0.05c0.071-0.06,0.148-0.122,0.226-0.188c0.351-0.291,0.749-0.64,1.142-0.979&#xD;&#xA;&#x9;&#x9;C197.393,124.601,198.35,123.792,198.35,124.096z"/>
  <linearGradient id="SVGID_23_" gradientUnits="userSpaceOnUse" x1="153.5332" y1="115.5215" x2="153.5332" y2="127.1699">
    <stop offset="0" style="stop-color:#000000;stop-opacity:0.25"/>
    <stop offset="0.3783" style="stop-color:#000000;stop-opacity:0.036"/>
    <stop offset="0.4419" style="stop-color:#000000;stop-opacity:0"/>
    <stop offset="0.4525" style="stop-color:#FFFFFF;stop-opacity:0"/>
    <stop offset="0.6772" style="stop-color:#FFFFFF;stop-opacity:0.25"/>
    <stop offset="0.8545" style="stop-color:#FFFFFF;stop-opacity:0.1213"/>
    <stop offset="0.8839" style="stop-color:#FFFFFF;stop-opacity:0.1"/>
    <stop offset="0.9457" style="stop-color:#000000;stop-opacity:0"/>
    <stop offset="1" style="stop-color:#000000;stop-opacity:0.25"/>
  </linearGradient>
  <path fill="url(#SVGID_23_)" d="M194.137,125.874c0,0.617,0,0.617,0,1.236c0,0.041,0.018,0.06,0.053,0.06h-23.804l1.136-8.946&#xD;&#xA;&#x9;&#x9;l0.113-0.886h22.614c0.675,0,4.1-2.31,4.1-1.721v5.327C198.35,121.58,194.137,125.255,194.137,125.874z M112.915,127.154v0.003&#xD;&#xA;&#x9;&#x9;c-0.003,0.006-0.009,0.01-0.016,0.013h0.253l-1.159-8.946l-0.164-1.269c-0.401-0.202-0.862-0.455-1.308-0.693&#xD;&#xA;&#x9;&#x9;c-0.068-0.038-0.137-0.074-0.205-0.109c-0.11-0.057-0.214-0.113-0.318-0.167c-0.104-0.054-0.202-0.104-0.297-0.151&#xD;&#xA;&#x9;&#x9;c-0.068-0.03-0.134-0.063-0.196-0.093c-0.042-0.018-0.083-0.035-0.122-0.053c-0.119-0.051-0.226-0.093-0.318-0.122&#xD;&#xA;&#x9;&#x9;c-0.026-0.009-0.05-0.015-0.074-0.021c-0.003-0.004-0.009-0.004-0.012-0.004c-0.026-0.008-0.051-0.012-0.074-0.014&#xD;&#xA;&#x9;&#x9;c-0.119-0.019-0.185,0.008-0.188,0.089v5.327c0,0.636,4.213,4.311,4.213,4.93c0,0.621,0,0.621,0,1.239&#xD;&#xA;&#x9;&#x9;C112.93,127.131,112.927,127.146,112.915,127.154z"/>
  <path fill="#006092" d="M112.915,127.154v0.003c-0.003,0.006-0.009,0.01-0.016,0.013h-0.023&#xD;&#xA;&#x9;&#x9;C112.894,127.17,112.909,127.163,112.915,127.154z"/>
  <path fill="#006092" d="M112.915,127.154v0.003c-0.003,0.006-0.009,0.01-0.016,0.013h-0.023&#xD;&#xA;&#x9;&#x9;C112.894,127.17,112.909,127.163,112.915,127.154z"/>
  <linearGradient id="SVGID_24_" gradientUnits="userSpaceOnUse" x1="138.4697" y1="144.998" x2="168.5972" y2="144.998">
    <stop offset="0" style="stop-color:#000000;stop-opacity:0.25"/>
    <stop offset="0.0362" style="stop-color:#000000;stop-opacity:0"/>
    <stop offset="0.9593" style="stop-color:#000000;stop-opacity:0"/>
    <stop offset="1" style="stop-color:#000000;stop-opacity:0.25"/>
  </linearGradient>
  <path fill="url(#SVGID_24_)" d="M168.597,141.243v7.51H138.47v-2.227h26.426c1.665,0,3.184-1.237,3.38-2.756L168.597,141.243z"/>
  <path fill="#006092" d="M112.915,127.154v0.003c-0.003,0.006-0.009,0.01-0.016,0.013h-0.023&#xD;&#xA;&#x9;&#x9;C112.894,127.17,112.909,127.163,112.915,127.154z"/>
  <path fill="#006092" d="M112.915,127.154v0.003c-0.003,0.006-0.009,0.01-0.016,0.013h-0.023&#xD;&#xA;&#x9;&#x9;C112.894,127.17,112.909,127.163,112.915,127.154z"/>
  <linearGradient id="SVGID_25_" gradientUnits="userSpaceOnUse" x1="141.7905" y1="78.3872" x2="141.7905" y2="146.5269">
    <stop offset="0" style="stop-color:#FFFFFF;stop-opacity:0.35"/>
    <stop offset="0.0422" style="stop-color:#FFFFFF;stop-opacity:0.2"/>
    <stop offset="0.4646" style="stop-color:#FFFFFF;stop-opacity:0.1"/>
    <stop offset="0.5234" style="stop-color:#000000;stop-opacity:0.25"/>
    <stop offset="0.9548" style="stop-color:#000000;stop-opacity:0.15"/>
    <stop offset="1" style="stop-color:#000000;stop-opacity:0.35"/>
  </linearGradient>
  <path fill="url(#SVGID_25_)" d="M171.903,109.698l-0.333-2.619l-1.175-9.226l-0.143-1.141l-0.624-4.906l-1.353-10.661&#xD;&#xA;&#x9;&#x9;c0-0.003,0-0.003,0-0.006c-0.024-0.155-0.056-0.306-0.104-0.449c-0.404-1.302-1.778-2.304-3.276-2.304h-46.211&#xD;&#xA;&#x9;&#x9;c-1.499,0-2.875,1.002-3.276,2.304c-0.048,0.143-0.083,0.294-0.099,0.449c0,0.003,0,0.003,0,0.006l-1.329,10.661l-0.613,4.906&#xD;&#xA;&#x9;&#x9;l-0.143,1.141l-0.906,7.266l-0.238,1.917l-0.407,3.267c-0.151,1.201-0.181,3-0.089,4.451c0.023,0.383,0.057,0.743,0.098,1.062&#xD;&#xA;&#x9;&#x9;l0.146,1.139l0.164,1.269l1.159,8.946l2.149,16.601c0.193,1.519,1.716,2.756,3.383,2.756h46.211c1.665,0,3.184-1.237,3.38-2.756&#xD;&#xA;&#x9;&#x9;l0.321-2.527l1.79-14.073l1.136-8.946l0.113-0.886l0.268-2.122C172.096,113.696,172.096,111.217,171.903,109.698z M171.044,115.103&#xD;&#xA;&#x9;&#x9;l-0.282,2.235l-1.249,9.832l-0.916,7.212l-1.177,9.278c-0.143,1.082-1.296,2.001-2.524,2.001h-46.211&#xD;&#xA;&#x9;&#x9;c-1.228,0-2.384-0.919-2.527-2.001l-2.135-16.49l-1.272-9.838l-0.211-1.626c-0.009-0.08-0.021-0.16-0.03-0.247v-0.003&#xD;&#xA;&#x9;&#x9;c-0.018-0.175-0.033-0.359-0.047-0.553c-0.015-0.193-0.027-0.398-0.036-0.606v-0.024c-0.009-0.175-0.015-0.355-0.018-0.537&#xD;&#xA;&#x9;&#x9;c-0.015-0.615-0.012-1.252,0.012-1.85c0.006-0.14,0.012-0.276,0.021-0.41c0.003-0.086,0.009-0.17,0.015-0.253&#xD;&#xA;&#x9;&#x9;c0.018-0.294,0.044-0.567,0.074-0.812l0.416-3.332l1.281-10.26l0.012-0.107l0.612-4.906l1.317-10.554&#xD;&#xA;&#x9;&#x9;c0.003-0.039,0.009-0.077,0.015-0.113c0-0.003,0-0.003,0.003-0.006c0.003-0.024,0.009-0.047,0.015-0.071&#xD;&#xA;&#x9;&#x9;c0.009-0.036,0.018-0.068,0.03-0.104c0.3-0.979,1.353-1.707,2.453-1.707h46.211c1.1,0,2.149,0.728,2.45,1.695&#xD;&#xA;&#x9;&#x9;c0.015,0.047,0.026,0.092,0.035,0.14c0.006,0.018,0.012,0.035,0.012,0.053c0.012,0.042,0.021,0.083,0.027,0.125l1.341,10.542&#xD;&#xA;&#x9;&#x9;l0.621,4.906l0.015,0.107l0.143,1.142l1.157,9.118l0.348,2.729C171.228,111.244,171.228,113.673,171.044,115.103z"/>
  <linearGradient id="SVGID_26_" gradientUnits="userSpaceOnUse" x1="141.7915" y1="79.2524" x2="141.7915" y2="145.6616">
    <stop offset="0" style="stop-color:#FFFFFF;stop-opacity:0.1"/>
    <stop offset="0.0475" style="stop-color:#EAEAEA;stop-opacity:0.1"/>
    <stop offset="0.1999" style="stop-color:#ADADAD;stop-opacity:0.1"/>
    <stop offset="0.3512" style="stop-color:#787878;stop-opacity:0.1"/>
    <stop offset="0.4978" style="stop-color:#4D4D4D;stop-opacity:0.1"/>
    <stop offset="0.6387" style="stop-color:#2C2C2C;stop-opacity:0.1"/>
    <stop offset="0.7725" style="stop-color:#131313;stop-opacity:0.1"/>
    <stop offset="0.8961" style="stop-color:#050505;stop-opacity:0.1"/>
    <stop offset="1" style="stop-color:#000000;stop-opacity:0.1"/>
  </linearGradient>
  <path fill="url(#SVGID_26_)" d="M171.044,109.808l-0.348-2.729l-1.157-9.118l-0.143-1.142l-0.015-0.107l-0.621-4.906l-1.341-10.542&#xD;&#xA;&#x9;&#x9;c-0.006-0.042-0.015-0.083-0.027-0.125c0-0.018-0.006-0.036-0.012-0.053c-0.009-0.048-0.021-0.092-0.035-0.14&#xD;&#xA;&#x9;&#x9;c-0.301-0.967-1.35-1.695-2.45-1.695h-46.211c-1.1,0-2.152,0.728-2.453,1.707c-0.012,0.036-0.021,0.068-0.03,0.104&#xD;&#xA;&#x9;&#x9;c-0.006,0.024-0.012,0.047-0.015,0.071c-0.003,0.003-0.003,0.003-0.003,0.006c-0.006,0.036-0.012,0.074-0.015,0.113l-1.317,10.554&#xD;&#xA;&#x9;&#x9;l-0.612,4.906l-0.012,0.107l-1.281,10.26l-0.416,3.332c-0.03,0.244-0.057,0.518-0.074,0.812c-0.006,0.083-0.012,0.167-0.015,0.253&#xD;&#xA;&#x9;&#x9;c-0.009,0.134-0.015,0.271-0.021,0.41c-0.023,0.598-0.026,1.234-0.012,1.85c0.003,0.182,0.012,0.362,0.018,0.537v0.024&#xD;&#xA;&#x9;&#x9;c0.012,0.208,0.021,0.41,0.036,0.606c0.015,0.193,0.03,0.378,0.047,0.553v0.003c0.009,0.087,0.021,0.167,0.03,0.247l0.211,1.626&#xD;&#xA;&#x9;&#x9;l1.272,9.838l2.135,16.49c0.143,1.082,1.299,2.001,2.527,2.001h46.211c1.228,0,2.381-0.919,2.524-2.001l1.177-9.278l0.916-7.212&#xD;&#xA;&#x9;&#x9;l1.249-9.832l0.282-2.235C171.228,113.673,171.228,111.244,171.044,109.808z M116.027,115.896c-1.466,0-2.658-1.192-2.658-2.658&#xD;&#xA;&#x9;&#x9;c0-1.469,1.192-2.657,2.658-2.657c1.469,0,2.658,1.188,2.658,2.657C118.685,114.704,117.496,115.896,116.027,115.896z&#xD;&#xA;&#x9;&#x9; M164.173,141.895c0,0.454-0.169,0.88-0.463,1.216c-0.393,0.464-1.008,0.767-1.701,0.767h-40.151c-0.56,0-1.073-0.192-1.454-0.522&#xD;&#xA;&#x9;&#x9;c-0.437-0.36-0.71-0.883-0.71-1.46V82.674c0-0.547,0.247-1.049,0.645-1.409c0.048-0.044,0.098-0.086,0.148-0.125&#xD;&#xA;&#x9;&#x9;c0.375-0.282,0.854-0.449,1.371-0.449h40.151c0.518,0,0.996,0.169,1.368,0.449c0.128,0.098,0.244,0.208,0.342,0.327&#xD;&#xA;&#x9;&#x9;c0.285,0.333,0.455,0.752,0.455,1.207V141.895z M167.702,115.896c-1.466,0-2.658-1.192-2.658-2.658&#xD;&#xA;&#x9;&#x9;c0-1.469,1.192-2.657,2.658-2.657c1.469,0,2.658,1.188,2.658,2.657C170.36,114.704,169.171,115.896,167.702,115.896z"/>
  <g>
    <linearGradient id="SVGID_27_" gradientUnits="userSpaceOnUse" x1="123.7329" y1="81.2651" x2="123.7329" y2="143.355">
      <stop offset="0" style="stop-color:#000000;stop-opacity:0.25"/>
      <stop offset="1" style="stop-color:#000000;stop-opacity:0.2"/>
    </linearGradient>
    <path fill="url(#SVGID_27_)" d="M127.773,98.52c0,0.651-0.484,3.921-1.231,8.56c-0.479,2.967-1.061,6.498-1.695,10.259&#xD;&#xA;&#x9;&#x9;&#x9;c-0.047,0.295-0.098,0.589-0.148,0.886c-0.487,2.911-1.002,5.943-1.513,8.946c-1.002,5.88-1.995,11.65-2.783,16.185&#xD;&#xA;&#x9;&#x9;&#x9;c-0.437-0.36-0.71-0.883-0.71-1.46V82.674c0-0.547,0.247-1.049,0.645-1.409c1.514,3.065,3.47,7.108,4.995,10.542&#xD;&#xA;&#x9;&#x9;&#x9;c0.85,1.915,1.567,3.639,1.998,4.906c0.152,0.44,0.271,0.827,0.342,1.141C127.737,98.13,127.773,98.356,127.773,98.52z"/>
    <linearGradient id="SVGID_28_" gradientUnits="userSpaceOnUse" x1="160.2788" y1="81.4673" x2="160.2788" y2="143.1108">
      <stop offset="0" style="stop-color:#000000;stop-opacity:0.25"/>
      <stop offset="1" style="stop-color:#000000;stop-opacity:0.2"/>
    </linearGradient>
    <path fill="url(#SVGID_28_)" d="M164.173,82.674v59.221c0,0.454-0.169,0.88-0.463,1.216c-0.705-4.055-1.57-9.067-2.453-14.252&#xD;&#xA;&#x9;&#x9;&#x9;c-0.095-0.547-0.187-1.094-0.282-1.645c-0.003-0.012-0.003-0.026-0.006-0.041c0,0,0,0-0.003-0.003&#xD;&#xA;&#x9;&#x9;&#x9;c-0.089-0.532-0.182-1.067-0.271-1.603c-0.188-1.101-0.375-2.2-0.559-3.294c-0.092-0.544-0.184-1.091-0.277-1.632&#xD;&#xA;&#x9;&#x9;&#x9;c-0.137-0.813-0.273-1.621-0.407-2.418c-0.05-0.297-0.098-0.591-0.148-0.886c-0.627-3.761-1.21-7.292-1.688-10.259&#xD;&#xA;&#x9;&#x9;&#x9;c-0.746-4.638-1.231-7.908-1.231-8.56c0-0.163,0.033-0.39,0.098-0.666c0.077-0.314,0.19-0.701,0.342-1.141&#xD;&#xA;&#x9;&#x9;&#x9;c0.434-1.267,1.15-2.991,2.001-4.906c0.396-0.889,0.817-1.819,1.255-2.762c0.243-0.526,0.49-1.052,0.74-1.582&#xD;&#xA;&#x9;&#x9;&#x9;c0.996-2.111,2.019-4.209,2.899-5.996C164.004,81.8,164.173,82.22,164.173,82.674z"/>
  </g>
  <g>
    <g>
      <linearGradient id="SVGID_29_" gradientUnits="userSpaceOnUse" x1="116.0269" y1="110.5811" x2="116.0269" y2="115.8965">
        <stop offset="0" style="stop-color:#FFFFFF;stop-opacity:0.25"/>
        <stop offset="0.0475" style="stop-color:#EAEAEA;stop-opacity:0.2524"/>
        <stop offset="0.1999" style="stop-color:#ADADAD;stop-opacity:0.26"/>
        <stop offset="0.3512" style="stop-color:#787878;stop-opacity:0.2676"/>
        <stop offset="0.4978" style="stop-color:#4D4D4D;stop-opacity:0.2749"/>
        <stop offset="0.6387" style="stop-color:#2C2C2C;stop-opacity:0.2819"/>
        <stop offset="0.7725" style="stop-color:#131313;stop-opacity:0.2886"/>
        <stop offset="0.8961" style="stop-color:#050505;stop-opacity:0.2948"/>
        <stop offset="1" style="stop-color:#000000;stop-opacity:0.3"/>
      </linearGradient>
      <path fill="url(#SVGID_29_)" d="M116.027,110.581c-1.466,0-2.658,1.188-2.658,2.657c0,1.466,1.192,2.658,2.658,2.658&#xD;&#xA;&#x9;&#x9;&#x9;&#x9;c1.469,0,2.658-1.192,2.658-2.658C118.685,111.77,117.496,110.581,116.027,110.581z M116.027,115.501&#xD;&#xA;&#x9;&#x9;&#x9;&#x9;c-1.249,0-2.263-1.011-2.263-2.263c0-1.251,1.014-2.269,2.263-2.269c1.251,0,2.263,1.018,2.263,2.269&#xD;&#xA;&#x9;&#x9;&#x9;&#x9;C118.29,114.49,117.279,115.501,116.027,115.501z"/>
    </g>
    <g>
      <linearGradient id="SVGID_30_" gradientUnits="userSpaceOnUse" x1="167.7026" y1="110.5811" x2="167.7026" y2="115.8965">
        <stop offset="0" style="stop-color:#FFFFFF;stop-opacity:0.25"/>
        <stop offset="0.0475" style="stop-color:#EAEAEA;stop-opacity:0.2524"/>
        <stop offset="0.1999" style="stop-color:#ADADAD;stop-opacity:0.26"/>
        <stop offset="0.3512" style="stop-color:#787878;stop-opacity:0.2676"/>
        <stop offset="0.4978" style="stop-color:#4D4D4D;stop-opacity:0.2749"/>
        <stop offset="0.6387" style="stop-color:#2C2C2C;stop-opacity:0.2819"/>
        <stop offset="0.7725" style="stop-color:#131313;stop-opacity:0.2886"/>
        <stop offset="0.8961" style="stop-color:#050505;stop-opacity:0.2948"/>
        <stop offset="1" style="stop-color:#000000;stop-opacity:0.3"/>
      </linearGradient>
      <path fill="url(#SVGID_30_)" d="M167.702,110.581c-1.466,0-2.658,1.188-2.658,2.657c0,1.466,1.192,2.658,2.658,2.658&#xD;&#xA;&#x9;&#x9;&#x9;&#x9;c1.469,0,2.658-1.192,2.658-2.658C170.36,111.77,169.171,110.581,167.702,110.581z M167.702,115.501&#xD;&#xA;&#x9;&#x9;&#x9;&#x9;c-1.249,0-2.263-1.011-2.263-2.263c0-1.251,1.014-2.269,2.263-2.269c1.252,0,2.263,1.018,2.263,2.269&#xD;&#xA;&#x9;&#x9;&#x9;&#x9;C169.965,114.49,168.954,115.501,167.702,115.501z"/>
    </g>
  </g>
  <g>
    <g>
      <linearGradient id="SVGID_31_" gradientUnits="userSpaceOnUse" x1="116.0273" y1="115.501" x2="116.0273" y2="110.9697">
        <stop offset="0" style="stop-color:#FFFFFF;stop-opacity:0.05"/>
        <stop offset="1" style="stop-color:#000000;stop-opacity:0.1"/>
      </linearGradient>
      <circle fill="url(#SVGID_31_)" cx="116.027" cy="113.238" r="2.263"/>
    </g>
    <g>
      <linearGradient id="SVGID_32_" gradientUnits="userSpaceOnUse" x1="167.7021" y1="115.501" x2="167.7021" y2="110.9697">
        <stop offset="0" style="stop-color:#FFFFFF;stop-opacity:0.05"/>
        <stop offset="1" style="stop-color:#000000;stop-opacity:0.1"/>
      </linearGradient>
      <circle fill="url(#SVGID_32_)" cx="167.702" cy="113.238" r="2.263"/>
    </g>
  </g>
  <polygon fill="#CCCCCC" points="246.134,138.287 243.856,141.26 243.856,47.056 246.134,50.028 &#x9;"/>
  <path fill="#CCCCCC" d="M279.133,90.145v8.026c0,0.654-0.535,1.189-1.189,1.189h-31.811c0-2.01,0-8.244,0-10.405h31.811&#xD;&#xA;&#x9;&#x9;C278.598,88.955,279.133,89.49,279.133,90.145z"/>
  <linearGradient id="SVGID_33_" gradientUnits="userSpaceOnUse" x1="262.6333" y1="88.9551" x2="262.6333" y2="99.3604">
    <stop offset="0.0123" style="stop-color:#000000;stop-opacity:0.2"/>
    <stop offset="0.0736" style="stop-color:#000000;stop-opacity:0"/>
    <stop offset="0.1227" style="stop-color:#000000;stop-opacity:0.4"/>
    <stop offset="0.1634" style="stop-color:#393939;stop-opacity:0.4596"/>
    <stop offset="0.2177" style="stop-color:#7F7F7F;stop-opacity:0.5389"/>
    <stop offset="0.2666" style="stop-color:#B6B6B6;stop-opacity:0.6105"/>
    <stop offset="0.3085" style="stop-color:#DEDEDE;stop-opacity:0.6718"/>
    <stop offset="0.3417" style="stop-color:#F6F6F6;stop-opacity:0.7203"/>
    <stop offset="0.362" style="stop-color:#FFFFFF;stop-opacity:0.75"/>
    <stop offset="0.4042" style="stop-color:#F6F6F6;stop-opacity:0.75"/>
    <stop offset="0.473" style="stop-color:#DEDEDE;stop-opacity:0.75"/>
    <stop offset="0.56" style="stop-color:#B6B6B6;stop-opacity:0.75"/>
    <stop offset="0.6617" style="stop-color:#7F7F7F;stop-opacity:0.75"/>
    <stop offset="0.7743" style="stop-color:#393939;stop-opacity:0.75"/>
    <stop offset="0.8589" style="stop-color:#000000;stop-opacity:0.75"/>
    <stop offset="0.9325" style="stop-color:#000000;stop-opacity:0.45"/>
    <stop offset="0.9755" style="stop-color:#000000;stop-opacity:0.75"/>
  </linearGradient>
  <path fill="url(#SVGID_33_)" d="M279.133,90.145v8.026c0,0.654-0.535,1.189-1.189,1.189h-31.811c0-2.01,0-8.244,0-10.405h31.811&#xD;&#xA;&#x9;&#x9;C278.598,88.955,279.133,89.49,279.133,90.145z"/>
  <linearGradient id="SVGID_34_" gradientUnits="userSpaceOnUse" x1="246.1338" y1="94.1577" x2="279.1333" y2="94.1577">
    <stop offset="0" style="stop-color:#000000;stop-opacity:0.35"/>
    <stop offset="0.1227" style="stop-color:#000000;stop-opacity:0.2"/>
    <stop offset="0.1709" style="stop-color:#000000;stop-opacity:0.1882"/>
    <stop offset="0.9397" style="stop-color:#000000;stop-opacity:0"/>
    <stop offset="0.9978" style="stop-color:#000000;stop-opacity:0.2891"/>
    <stop offset="1" style="stop-color:#000000;stop-opacity:0.3"/>
  </linearGradient>
  <path fill="url(#SVGID_34_)" d="M279.133,90.145v8.026c0,0.654-0.535,1.189-1.189,1.189h-31.811c0-2.01,0-8.244,0-10.405h31.811&#xD;&#xA;&#x9;&#x9;C278.598,88.955,279.133,89.49,279.133,90.145z"/>
  <linearGradient id="SVGID_35_" gradientUnits="userSpaceOnUse" x1="244.9951" y1="47.0557" x2="244.9951" y2="141.2603">
    <stop offset="0.0123" style="stop-color:#000000;stop-opacity:0.2"/>
    <stop offset="0.0736" style="stop-color:#000000;stop-opacity:0"/>
    <stop offset="0.1227" style="stop-color:#000000;stop-opacity:0.4"/>
    <stop offset="0.1634" style="stop-color:#393939;stop-opacity:0.4596"/>
    <stop offset="0.2177" style="stop-color:#7F7F7F;stop-opacity:0.5389"/>
    <stop offset="0.2666" style="stop-color:#B6B6B6;stop-opacity:0.6105"/>
    <stop offset="0.3085" style="stop-color:#DEDEDE;stop-opacity:0.6718"/>
    <stop offset="0.3417" style="stop-color:#F6F6F6;stop-opacity:0.7203"/>
    <stop offset="0.362" style="stop-color:#FFFFFF;stop-opacity:0.75"/>
    <stop offset="0.4042" style="stop-color:#F6F6F6;stop-opacity:0.75"/>
    <stop offset="0.473" style="stop-color:#DEDEDE;stop-opacity:0.75"/>
    <stop offset="0.56" style="stop-color:#B6B6B6;stop-opacity:0.75"/>
    <stop offset="0.6617" style="stop-color:#7F7F7F;stop-opacity:0.75"/>
    <stop offset="0.7743" style="stop-color:#393939;stop-opacity:0.75"/>
    <stop offset="0.8589" style="stop-color:#000000;stop-opacity:0.75"/>
    <stop offset="0.9325" style="stop-color:#000000;stop-opacity:0.45"/>
    <stop offset="0.9755" style="stop-color:#000000;stop-opacity:0.75"/>
  </linearGradient>
  <polygon fill="url(#SVGID_35_)" points="246.134,138.287 243.856,141.26 243.856,47.056 246.134,50.028 &#x9;"/>
  <linearGradient id="SVGID_36_" gradientUnits="userSpaceOnUse" x1="153.5332" y1="37.8184" x2="153.5332" y2="127.1733">
    <stop offset="0" style="stop-color:#FFFFFF;stop-opacity:0.15"/>
    <stop offset="1" style="stop-color:#000000;stop-opacity:0.25"/>
  </linearGradient>
  <path fill="url(#SVGID_36_)" d="M112.93,93.439c0,0.82,0,0.82,0,1.635c0,0.077-0.036,0.146-0.104,0.211&#xD;&#xA;&#x9;&#x9;c-0.023,0.021-0.047,0.042-0.077,0.063c-0.015,0.009-0.029,0.018-0.044,0.03c-0.033,0.018-0.068,0.036-0.104,0.057&#xD;&#xA;&#x9;&#x9;c-0.47,0.229-1.358,0.375-2.17,0.538c-0.065,0.012-0.127,0.024-0.193,0.039c-0.081,0.015-0.158,0.033-0.235,0.05&#xD;&#xA;&#x9;&#x9;c-0.151,0.033-0.297,0.069-0.434,0.107c-0.102,0.027-0.196,0.057-0.286,0.089c-0.044,0.015-0.086,0.03-0.125,0.047&#xD;&#xA;&#x9;&#x9;c-0.039,0.015-0.075,0.033-0.11,0.051c-0.095,0.045-0.172,0.095-0.226,0.148c-0.068,0.063-0.104,0.131-0.104,0.206v-4.903&#xD;&#xA;&#x9;&#x9;c0,0.075,0.039,0.146,0.104,0.208c0.023,0.021,0.047,0.042,0.077,0.063c0.015,0.008,0.029,0.018,0.044,0.03&#xD;&#xA;&#x9;&#x9;c0.033,0.018,0.068,0.035,0.104,0.057c0.47,0.229,1.358,0.374,2.167,0.538c0.065,0.012,0.131,0.024,0.193,0.039&#xD;&#xA;&#x9;&#x9;c0.125,0.027,0.25,0.054,0.366,0.081c0.06,0.015,0.116,0.027,0.172,0.042s0.113,0.029,0.164,0.045&#xD;&#xA;&#x9;&#x9;c0.056,0.015,0.109,0.032,0.163,0.05c0.057,0.015,0.107,0.033,0.154,0.053c0.021,0.006,0.042,0.015,0.06,0.024&#xD;&#xA;&#x9;&#x9;c0.146,0.06,0.262,0.125,0.339,0.199C112.894,93.296,112.93,93.365,112.93,93.439z M112.888,81.208&#xD;&#xA;&#x9;&#x9;c-0.006-0.009-0.018-0.018-0.032-0.024c-0.048-0.026-0.119-0.042-0.205-0.044h-0.158c-0.425,0.018-1.103,0.164-1.766,0.3&#xD;&#xA;&#x9;&#x9;c-0.146,0.03-0.288,0.06-0.431,0.089c-0.301,0.06-0.586,0.113-0.83,0.143c-0.021,0.003-0.041,0.006-0.062,0.006&#xD;&#xA;&#x9;&#x9;c-0.021,0.003-0.042,0.006-0.063,0.009c-0.03,0.003-0.06,0.003-0.089,0.006c-0.012,0-0.021,0.003-0.029,0.003h-0.036&#xD;&#xA;&#x9;&#x9;c-0.057,0.003-0.107,0.003-0.154,0c-0.021,0-0.042,0-0.06-0.003c-0.015-0.003-0.03-0.003-0.042-0.006&#xD;&#xA;&#x9;&#x9;c-0.03-0.003-0.06-0.009-0.083-0.018c-0.006-0.003-0.012-0.003-0.018-0.006c-0.009-0.003-0.015-0.006-0.024-0.012&#xD;&#xA;&#x9;&#x9;c-0.015-0.006-0.03-0.015-0.039-0.023s-0.018-0.015-0.024-0.024c-0.018-0.021-0.027-0.044-0.027-0.075v3.375&#xD;&#xA;&#x9;&#x9;c0-0.071,0.051-0.149,0.14-0.226c0.027-0.026,0.054-0.047,0.086-0.071c0.065-0.047,0.14-0.095,0.226-0.143&#xD;&#xA;&#x9;&#x9;c0.042-0.026,0.086-0.051,0.134-0.074c0.047-0.024,0.095-0.051,0.148-0.074c0.077-0.039,0.158-0.077,0.241-0.113&#xD;&#xA;&#x9;&#x9;c0.226-0.104,0.479-0.205,0.737-0.309c0.229-0.092,0.461-0.181,0.69-0.273c0.324-0.131,0.642-0.259,0.916-0.383&#xD;&#xA;&#x9;&#x9;c0.057-0.027,0.11-0.051,0.161-0.074c0.051-0.024,0.101-0.051,0.148-0.075c0.354-0.181,0.586-0.351,0.586-0.502&#xD;&#xA;&#x9;&#x9;c0-0.642,0-0.642,0-1.287C112.93,81.262,112.915,81.232,112.888,81.208z M112.207,105.063c-0.054-0.027-0.113-0.054-0.172-0.081&#xD;&#xA;&#x9;&#x9;c-0.053-0.023-0.11-0.05-0.169-0.074c-0.767-0.336-1.784-0.692-2.453-1.022c-0.036-0.018-0.068-0.036-0.101-0.053&#xD;&#xA;&#x9;&#x9;c-0.003,0-0.006,0-0.009-0.003c-0.03-0.015-0.06-0.029-0.086-0.047c-0.096-0.051-0.182-0.104-0.253-0.155&#xD;&#xA;&#x9;&#x9;c-0.065-0.044-0.119-0.089-0.158-0.134c-0.03-0.032-0.05-0.063-0.065-0.092c-0.009-0.015-0.015-0.03-0.018-0.045&#xD;&#xA;&#x9;&#x9;s-0.006-0.026-0.006-0.041v3.377c0-0.148,0.211-0.188,0.538-0.164c0.113,0.006,0.241,0.021,0.375,0.042&#xD;&#xA;&#x9;&#x9;c0.137,0.021,0.282,0.045,0.434,0.074c0.077,0.013,0.155,0.026,0.232,0.045c0.157,0.03,0.317,0.063,0.481,0.098&#xD;&#xA;&#x9;&#x9;c0.16,0.036,0.324,0.069,0.481,0.102c0.08,0.018,0.16,0.032,0.235,0.048c0.155,0.029,0.306,0.057,0.446,0.08&#xD;&#xA;&#x9;&#x9;c0.048,0.009,0.095,0.015,0.143,0.021l0.238-1.917C112.284,105.102,112.246,105.081,112.207,105.063z M111.684,115.816&#xD;&#xA;&#x9;&#x9;c-0.041-0.318-0.074-0.679-0.098-1.062c-0.155-0.107-0.315-0.217-0.476-0.33c-0.083-0.057-0.164-0.109-0.247-0.17&#xD;&#xA;&#x9;&#x9;c-0.342-0.231-0.687-0.469-0.996-0.692c-0.06-0.042-0.119-0.086-0.175-0.128c-0.229-0.169-0.434-0.327-0.594-0.476&#xD;&#xA;&#x9;&#x9;c-0.057-0.048-0.11-0.099-0.155-0.143c-0.125-0.125-0.202-0.235-0.22-0.321c-0.006-0.015-0.006-0.026-0.006-0.038v3.16&#xD;&#xA;&#x9;&#x9;c0.003-0.081,0.068-0.107,0.188-0.089c0.023,0.002,0.048,0.006,0.074,0.014c0.003,0,0.009,0,0.012,0.004&#xD;&#xA;&#x9;&#x9;c0.024,0.006,0.048,0.012,0.074,0.021c0.093,0.029,0.199,0.071,0.318,0.122c0.039,0.018,0.08,0.035,0.122,0.053&#xD;&#xA;&#x9;&#x9;c0.063,0.03,0.128,0.063,0.196,0.093c0.095,0.048,0.193,0.098,0.297,0.151c0.104,0.054,0.208,0.11,0.318,0.167&#xD;&#xA;&#x9;&#x9;c0.068,0.035,0.137,0.071,0.205,0.109c0.446,0.238,0.907,0.491,1.308,0.693L111.684,115.816z M108.717,120.944v3.151&#xD;&#xA;&#x9;&#x9;c0-0.06,0.039-0.077,0.107-0.057c0.021,0.003,0.041,0.012,0.062,0.024c0.045,0.02,0.098,0.05,0.161,0.089&#xD;&#xA;&#x9;&#x9;c0.03,0.018,0.063,0.038,0.095,0.063c0.375,0.255,0.945,0.743,1.534,1.251c0.11,0.096,0.22,0.19,0.327,0.283&#xD;&#xA;&#x9;&#x9;c0.146,0.125,0.292,0.249,0.431,0.371c0.134,0.113,0.262,0.223,0.383,0.324c0.078,0.065,0.155,0.128,0.227,0.188&#xD;&#xA;&#x9;&#x9;c0.023,0.015,0.044,0.032,0.065,0.05c0.044,0.036,0.089,0.071,0.133,0.104c0.262,0.202,0.467,0.342,0.583,0.377&#xD;&#xA;&#x9;&#x9;c0.021,0.007,0.036,0.01,0.051,0.01c0.009,0,0.018,0,0.023-0.003h-0.023c0.018,0,0.033-0.007,0.039-0.016&#xD;&#xA;&#x9;&#x9;c0.012-0.009,0.015-0.023,0.015-0.041c0-0.618,0-0.618,0-1.239C112.93,125.255,108.717,121.58,108.717,120.944z M194.25,69.989&#xD;&#xA;&#x9;&#x9;c-0.073,0-0.114,0.027-0.114,0.088c0,0.633,0,0.633,0,1.263c0,0.633,4.213,2.878,4.213,3.531V71.71&#xD;&#xA;&#x9;&#x9;C198.35,72.3,194.926,69.989,194.25,69.989z M194.191,59.562c-0.036,0-0.055,0.018-0.055,0.061c0,0.618,0,0.618,0,1.238&#xD;&#xA;&#x9;&#x9;c0,0.618,4.213,4.291,4.213,4.927V62.64C198.35,63.232,194.688,59.562,194.191,59.562z M195.675,51.48&#xD;&#xA;&#x9;&#x9;c-0.735-0.914-1.369-1.675-1.509-1.675c-0.019,0-0.029,0.012-0.029,0.042c0,0.603,0,0.603,0,1.205c0,0.076,0.066,0.223,0.18,0.428&#xD;&#xA;&#x9;&#x9;c0.808,1.424,4.033,5.542,4.033,6.085v-3.047C198.35,54.885,196.879,52.978,195.675,51.48z M196.91,46.797&#xD;&#xA;&#x9;&#x9;c-0.57-1.008-1.213-2.17-1.734-3.087c-0.534-0.932-0.942-1.607-1.024-1.607c-0.01,0-0.015,0.009-0.015,0.03&#xD;&#xA;&#x9;&#x9;c0,0.581,0,0.581,0,1.162c0,0.064,0.052,0.208,0.145,0.415c0.281,0.624,0.935,1.816,1.638,3.087&#xD;&#xA;&#x9;&#x9;c0.577,1.042,1.188,2.134,1.653,3.008c0.461,0.865,0.778,1.51,0.778,1.675v-2.406C198.35,49.311,197.7,48.2,196.91,46.797z&#xD;&#xA;&#x9;&#x9; M197.844,44.305c-0.204-0.352-0.461-0.806-0.741-1.312c-1.19-2.136-2.823-5.175-2.958-5.175c-0.005,0-0.008,0.005-0.008,0.017&#xD;&#xA;&#x9;&#x9;c0,0.454,0,0.454,0,0.905c0,0.234,1.135,2.276,2.226,4.253c0.248,0.446,0.494,0.893,0.723,1.312&#xD;&#xA;&#x9;&#x9;c0.709,1.294,1.265,2.348,1.265,2.518V45.03C198.35,45.129,198.152,44.83,197.844,44.305z M108.717,71.71v3.161&#xD;&#xA;&#x9;&#x9;c0-0.652,4.214-2.898,4.214-3.531c0-0.629,0-0.629,0-1.263c0-0.061-0.042-0.088-0.114-0.088&#xD;&#xA;&#x9;&#x9;C112.141,69.989,108.717,72.3,108.717,71.71z M108.717,62.64v3.147c0-0.636,4.214-4.309,4.214-4.927c0-0.62,0-0.62,0-1.238&#xD;&#xA;&#x9;&#x9;c0-0.043-0.019-0.061-0.056-0.061C112.38,59.562,108.717,63.232,108.717,62.64z M108.717,54.519v3.047&#xD;&#xA;&#x9;&#x9;c0-0.544,3.227-4.661,4.034-6.085c0.114-0.205,0.18-0.352,0.18-0.428c0-0.602,0-0.602,0-1.205c0-0.03-0.011-0.042-0.029-0.042&#xD;&#xA;&#x9;&#x9;c-0.141,0-0.774,0.761-1.509,1.675C110.188,52.978,108.717,54.885,108.717,54.519z M108.717,49.075v2.406&#xD;&#xA;&#x9;&#x9;c0-0.165,0.317-0.81,0.778-1.675c0.464-0.874,1.076-1.965,1.652-3.008c0.704-1.271,1.357-2.464,1.638-3.087&#xD;&#xA;&#x9;&#x9;c0.094-0.207,0.146-0.351,0.146-0.415c0-0.581,0-0.581,0-1.162c0-0.021-0.005-0.03-0.016-0.03c-0.081,0-0.49,0.676-1.024,1.607&#xD;&#xA;&#x9;&#x9;c-0.521,0.917-1.165,2.079-1.734,3.087C109.367,48.2,108.717,49.311,108.717,49.075z M108.717,45.03v1.792&#xD;&#xA;&#x9;&#x9;c0-0.17,0.557-1.224,1.265-2.518c0.229-0.419,0.475-0.865,0.723-1.312c1.092-1.977,2.227-4.019,2.227-4.253&#xD;&#xA;&#x9;&#x9;c0-0.451,0-0.451,0-0.905c0-0.012-0.003-0.017-0.009-0.017c-0.135,0-1.767,3.039-2.958,5.175c-0.281,0.506-0.537,0.96-0.742,1.312&#xD;&#xA;&#x9;&#x9;C108.914,44.83,108.717,45.129,108.717,45.03z M194.136,93.439c0,0.819,0,0.819,0,1.636c0,0.819,4.213,0.819,4.213,1.635v-4.906&#xD;&#xA;&#x9;&#x9;C198.35,92.624,194.136,92.624,194.136,93.439z M194.574,81.139h-0.157c-0.177,0.009-0.281,0.058-0.281,0.159&#xD;&#xA;&#x9;&#x9;c0,0.646,0,0.646,0,1.287s4.213,1.656,4.213,2.32v-3.377C198.35,82.059,195.652,81.182,194.574,81.139z M198.35,106.692v-3.377&#xD;&#xA;&#x9;&#x9;c0,0.663-4.213,1.678-4.213,2.32c0,0.641,0,0.641,0,1.288c0,0.1,0.104,0.148,0.281,0.158h0.157&#xD;&#xA;&#x9;&#x9;C195.652,107.038,198.35,106.161,198.35,106.692z M198.35,115.619v-3.162c0,0.652-4.213,2.898-4.213,3.531c0,0.629,0,0.629,0,1.263&#xD;&#xA;&#x9;&#x9;c0,0.061,0.042,0.088,0.114,0.088C194.926,117.339,198.35,115.028,198.35,115.619z M198.35,124.095v-3.149&#xD;&#xA;&#x9;&#x9;c0,0.636-4.213,4.311-4.213,4.929c0,0.62,0,0.62,0,1.237c0,0.043,0.019,0.061,0.055,0.061&#xD;&#xA;&#x9;&#x9;C194.688,127.172,198.35,123.501,198.35,124.095z"/>
  <linearGradient id="SVGID_37_" gradientUnits="userSpaceOnUse" x1="153.5332" y1="124.0303" x2="153.5332" y2="154.2529">
    <stop offset="0" style="stop-color:#000000;stop-opacity:0.2"/>
    <stop offset="0.8145" style="stop-color:#000000;stop-opacity:0.25"/>
    <stop offset="0.8205" style="stop-color:#FFFFFF;stop-opacity:0.1"/>
    <stop offset="0.8311" style="stop-color:#FFFFFF;stop-opacity:0.35"/>
    <stop offset="0.8763" style="stop-color:#FFFFFF;stop-opacity:0.1"/>
    <stop offset="0.9593" style="stop-color:#000000;stop-opacity:0.1"/>
    <stop offset="0.9819" style="stop-color:#000000;stop-opacity:0.25"/>
    <stop offset="1" style="stop-color:#000000;stop-opacity:0.45"/>
  </linearGradient>
  <path fill="url(#SVGID_37_)" d="M198.35,124.096v30.157h-89.633v-30.157c0-0.06,0.039-0.077,0.107-0.057&#xD;&#xA;&#x9;&#x9;c0.021,0.003,0.041,0.012,0.062,0.024c0.045,0.02,0.098,0.05,0.161,0.089c0.03,0.018,0.063,0.038,0.095,0.063&#xD;&#xA;&#x9;&#x9;c0.375,0.255,0.945,0.743,1.534,1.251c0.11,0.096,0.22,0.19,0.327,0.283c0.146,0.127,0.292,0.252,0.431,0.371&#xD;&#xA;&#x9;&#x9;c0.134,0.113,0.262,0.223,0.383,0.324c0.078,0.065,0.155,0.128,0.227,0.188c0.023,0.015,0.044,0.032,0.065,0.05&#xD;&#xA;&#x9;&#x9;c0.047,0.039,0.092,0.075,0.133,0.104c0.262,0.202,0.467,0.342,0.583,0.377c0.021,0.007,0.036,0.01,0.051,0.01&#xD;&#xA;&#x9;&#x9;c0.009,0,0.018,0,0.023-0.003h0.253l2.149,16.601c0.193,1.519,1.716,2.756,3.383,2.756h19.785v2.227h30.127v-7.51l1.79-14.073&#xD;&#xA;&#x9;&#x9;h23.78c0.006,0.003,0.015,0.003,0.023,0.003c0.102,0,0.33-0.152,0.634-0.387c0.041-0.029,0.086-0.065,0.134-0.104&#xD;&#xA;&#x9;&#x9;c0.021-0.018,0.042-0.035,0.065-0.05c0.071-0.06,0.148-0.122,0.226-0.188c0.351-0.291,0.749-0.64,1.142-0.979&#xD;&#xA;&#x9;&#x9;C197.393,124.601,198.35,123.792,198.35,124.096z"/>
  <g>
    <linearGradient id="SVGID_38_" gradientUnits="userSpaceOnUse" x1="213.7505" y1="113.7871" x2="213.7505" y2="132.8359">
      <stop offset="0.006" style="stop-color:#FFFFFF;stop-opacity:0.15"/>
      <stop offset="0.0754" style="stop-color:#FFFFFF;stop-opacity:0"/>
      <stop offset="0.9231" style="stop-color:#000000;stop-opacity:0"/>
      <stop offset="1" style="stop-color:#000000;stop-opacity:0.25"/>
    </linearGradient>
    <rect x="200.529" y="113.787" fill="url(#SVGID_38_)" width="26.443" height="19.049"/>
    <linearGradient id="SVGID_39_" gradientUnits="userSpaceOnUse" x1="213.7505" y1="55.1143" x2="213.7505" y2="74.1631">
      <stop offset="0.006" style="stop-color:#FFFFFF;stop-opacity:0.15"/>
      <stop offset="0.0754" style="stop-color:#FFFFFF;stop-opacity:0"/>
      <stop offset="0.9231" style="stop-color:#000000;stop-opacity:0"/>
      <stop offset="1" style="stop-color:#000000;stop-opacity:0.25"/>
    </linearGradient>
    <rect x="200.529" y="55.114" fill="url(#SVGID_39_)" width="26.443" height="19.049"/>
  </g>
  <g>
    <linearGradient id="SVGID_40_" gradientUnits="userSpaceOnUse" x1="200.5293" y1="123.3115" x2="226.9722" y2="123.3115">
      <stop offset="0.7376" style="stop-color:#000000;stop-opacity:0"/>
      <stop offset="1" style="stop-color:#000000;stop-opacity:0.1"/>
    </linearGradient>
    <rect x="200.529" y="113.787" fill="url(#SVGID_40_)" width="26.443" height="19.049"/>
    <linearGradient id="SVGID_41_" gradientUnits="userSpaceOnUse" x1="200.5293" y1="64.6387" x2="226.9722" y2="64.6387">
      <stop offset="0.7376" style="stop-color:#000000;stop-opacity:0"/>
      <stop offset="1" style="stop-color:#000000;stop-opacity:0.1"/>
    </linearGradient>
    <rect x="200.529" y="55.114" fill="url(#SVGID_41_)" width="26.443" height="19.049"/>
  </g>
  <path fill="#4D4D4D" d="M112.361,126.875h-0.041v-0.029C112.335,126.857,112.35,126.866,112.361,126.875z"/>
  <path fill="#4D4D4D" d="M112.082,107.037h-0.143l-0.051-0.03c0.018,0.004,0.033,0.006,0.051,0.01&#xD;&#xA;&#x9;&#x9;C111.987,107.025,112.035,107.031,112.082,107.037z"/>
  <linearGradient id="SVGID_42_" gradientUnits="userSpaceOnUse" x1="153.5376" y1="71.8086" x2="153.5376" y2="154.2534">
    <stop offset="0" style="stop-color:#000000;stop-opacity:0.1"/>
    <stop offset="1" style="stop-color:#000000;stop-opacity:0.45"/>
  </linearGradient>
  <path fill="url(#SVGID_42_)" d="M198.35,75.322c0,0.692-3.683,2.378-3.683,2.378H112.4c0,0-3.684-1.686-3.684-2.378l0.033-0.565&#xD;&#xA;&#x9;&#x9;c0.318-0.625,2.887-2.099,3.833-2.949h81.903c0.945,0.85,3.514,2.324,3.832,2.949L198.35,75.322z M198.358,85.528&#xD;&#xA;&#x9;&#x9;c0-0.494,0-0.625,0-0.625l-0.273-0.333h-0.003c-0.707-0.481-2.595-1.061-3.472-1.549h-25.534c-0.149-0.081-0.297-1.605,0-1.882&#xD;&#xA;&#x9;&#x9;h-0.791c0,0.003,0,0.003,0,0.006l0.237,1.876l0.684,5.381l0.431,3.403l0.437,3.434l0.187,1.472l0.143,1.141l0.324,2.539&#xD;&#xA;&#x9;&#x9;l0.845,6.645l0.006,0.042l0.333,2.619c0.077,0.624,0.128,1.414,0.14,2.232c0.021,1.165-0.027,2.393-0.14,3.285l-0.229,1.825&#xD;&#xA;&#x9;&#x9;l-0.038,0.297l-0.113,0.886l-0.645,5.087l-0.452,3.564l-0.039,0.295l-1.472,11.582l-0.318,2.491l-0.321,2.527&#xD;&#xA;&#x9;&#x9;c-0.196,1.519-1.716,2.756-3.38,2.756h-46.21c-1.668,0-3.19-1.237-3.384-2.756l-0.65-5.021l-1.499-11.579l-0.038-0.295&#xD;&#xA;&#x9;&#x9;l-0.476-3.684l-0.646-4.968l-0.164-1.269l-0.024-0.176v-0.003l-0.122-0.96c-0.041-0.318-0.074-0.679-0.098-1.062&#xD;&#xA;&#x9;&#x9;c-0.065-1.02-0.068-2.212-0.015-3.25v-0.002c0.023-0.438,0.06-0.842,0.104-1.199l0.408-3.267h-0.143l-0.05-0.03&#xD;&#xA;&#x9;&#x9;c0.018,0.004,0.033,0.006,0.05,0.01c0.048,0.009,0.096,0.015,0.143,0.021l0.238-1.917l0.589-4.727l0.318-2.539l0.143-1.141&#xD;&#xA;&#x9;&#x9;l0.184-1.472l0.429-3.434l0.425-3.403l0.669-5.381l0.235-1.876c0-0.003,0-0.003,0-0.006h-0.895c0.297,0.277,0.148,1.801,0,1.882&#xD;&#xA;&#x9;&#x9;h-1.95c-0.039,0.024-0.08,0.044-0.122,0.065c-0.047,0.024-0.098,0.05-0.148,0.075c-0.051,0.023-0.104,0.047-0.16,0.074&#xD;&#xA;&#x9;&#x9;c-0.274,0.125-0.592,0.252-0.916,0.383c-0.229,0.092-0.461,0.181-0.689,0.273c-0.259,0.104-0.512,0.205-0.737,0.309&#xD;&#xA;&#x9;&#x9;c-0.083,0.036-0.164,0.074-0.241,0.113c-0.054,0.023-0.101,0.05-0.148,0.074c-0.048,0.023-0.092,0.048-0.134,0.074&#xD;&#xA;&#x9;&#x9;c-0.065,0.036-0.125,0.074-0.178,0.11l-0.274,0.33c0,0,0,0.131,0,0.625c0,0.496,3.054,2.875,3.113,2.875h0.577&#xD;&#xA;&#x9;&#x9;c-0.187,1.462-0.354,2.925-0.392,3.172c-0.078,0.493,1.35,1.04,1.355,1.436c0.006,0.381,0.047,1.769-0.059,2.23h-0.446&#xD;&#xA;&#x9;&#x9;c-0.009,0.015-0.024,0.03-0.039,0.044c-0.024,0.021-0.047,0.042-0.078,0.063c-0.015,0.009-0.029,0.018-0.044,0.03&#xD;&#xA;&#x9;&#x9;c-0.033,0.018-0.068,0.036-0.104,0.057c-0.47,0.229-1.358,0.375-2.17,0.538c-0.065,0.012-0.128,0.024-0.193,0.039&#xD;&#xA;&#x9;&#x9;c-0.08,0.015-0.158,0.033-0.235,0.05c-0.152,0.033-0.297,0.069-0.434,0.107c-0.102,0.027-0.196,0.057-0.285,0.089&#xD;&#xA;&#x9;&#x9;c-0.045,0.015-0.086,0.03-0.125,0.047c-0.039,0.015-0.074,0.033-0.11,0.051c-0.026,0.012-0.054,0.026-0.077,0.042l-0.253,0.313&#xD;&#xA;&#x9;&#x9;c0,0,0,0.514,0,0.91c0,0.256,1.293,1.332,2.212,2.066c-0.193,1.37-0.351,2.773-0.41,3.136c-0.116,0.743,0.838,1.561,0.83,1.87&#xD;&#xA;&#x9;&#x9;c-0.006,0.25-0.003,1.525,0,2.01c0,0.116,0,0.188,0,0.188l-1.052-0.199c-0.077-0.019-0.155-0.032-0.232-0.045&#xD;&#xA;&#x9;&#x9;c-0.151-0.029-0.297-0.054-0.434-0.074c-0.134-0.021-0.262-0.036-0.375-0.042c-0.327-0.023-0.538,0.016-0.538,0.164v1.233&#xD;&#xA;&#x9;&#x9;c0,0.104,0.387,0.616,0.895,1.243c-0.125,0.743-0.232,1.451-0.25,1.801c-0.051,0.919,0.199,1.684,0.99,2.935v2.248l-0.354-0.167&#xD;&#xA;&#x9;&#x9;c-0.104-0.054-0.202-0.104-0.297-0.151c-0.068-0.03-0.134-0.063-0.196-0.093c-0.042-0.018-0.083-0.035-0.122-0.053&#xD;&#xA;&#x9;&#x9;c-0.119-0.051-0.226-0.093-0.318-0.122c-0.027-0.009-0.05-0.015-0.074-0.021c-0.003-0.004-0.009-0.004-0.012-0.004&#xD;&#xA;&#x9;&#x9;c-0.026-0.008-0.05-0.012-0.074-0.014c-0.119-0.019-0.185,0.008-0.188,0.089v1.338c0,0.314,0.83,1.62,1.511,2.679v0.002&#xD;&#xA;&#x9;&#x9;c0.053,0.634,0.113,1.143,0.172,1.309c0.193,0.538,1.813,3.829,1.915,4.034c0.003,0.003,0.003,0.006,0.006,0.009v1.858&#xD;&#xA;&#x9;&#x9;c0.015,0.012,0.029,0.021,0.042,0.029h-0.042v0.063l-0.276-0.306l-0.003-0.003c-0.071-0.06-0.146-0.119-0.223-0.185&#xD;&#xA;&#x9;&#x9;c-0.122-0.102-0.25-0.211-0.383-0.324c-0.009-0.006-0.015-0.015-0.024-0.021c-0.13-0.116-0.27-0.232-0.407-0.351&#xD;&#xA;&#x9;&#x9;c-0.106-0.093-0.217-0.188-0.327-0.283c-0.588-0.508-1.16-0.996-1.534-1.251c-0.033-0.024-0.065-0.045-0.095-0.063&#xD;&#xA;&#x9;&#x9;c-0.063-0.039-0.116-0.069-0.16-0.089c-0.021-0.013-0.042-0.021-0.063-0.024c-0.068-0.021-0.107-0.003-0.107,0.057v0.972&#xD;&#xA;&#x9;&#x9;c0,0.401,2.569,8.438,3.672,11.734c0,0.003,0,0.003,0.003,0.006c0.25,2.759,0.467,5.179,0.538,6&#xD;&#xA;&#x9;&#x9;c0.196,2.279,0.244,5.746,1.656,5.746h1.819c0.211,0.271,0.428,0.678,0.428,1.189c0,0.992,0.595,4.51,0.595,4.51h49.184&#xD;&#xA;&#x9;&#x9;c0,0,0.595-3.518,0.595-4.51c0-0.628,0.327-1.57,0.564-2.18h0.057c0.547,0,0.77,0.99,0.77,0.99s1.174-0.148,1.368-1.338&#xD;&#xA;&#x9;&#x9;s0.467-3.023,0.588-4.408c0.057-0.648,0.193-2.186,0.363-4.056h21.322c1.614,0,1.751-0.205,1.953-0.564&#xD;&#xA;&#x9;&#x9;c0.202-0.36,4.159-12.623,4.159-13.12v-0.972c0-0.476-2.33,1.766-3.525,2.69c-0.003,0.003-0.003,0.003-0.006,0.003l-0.071,0.086&#xD;&#xA;&#x9;&#x9;h-0.039c-0.247,0.185-0.431,0.298-0.517,0.298c-0.036,0-0.053-0.019-0.053-0.06v-0.238h-23.341&#xD;&#xA;&#x9;&#x9;c-0.05-0.437-0.074-1.017,0.089-1.347c0.14-0.282,0.616-1.242,1.088-2.218h21.568c0.74,0,1.438-0.223,1.694-0.621&#xD;&#xA;&#x9;&#x9;c0.256-0.396,0.437-1.088,0.785-1.745c0.351-0.657,2.327-3.505,2.327-3.989v-1.335c0-0.592-3.425,1.718-4.099,1.718&#xD;&#xA;&#x9;&#x9;c-0.072,0-0.113-0.026-0.113-0.086v-0.211h-22.104c-0.012-0.422-0.003-1.187,0.19-1.54c0.28-0.502,0.458-0.829,0.904-1.597&#xD;&#xA;&#x9;&#x9;c0.306-0.521,0.678-1.263,0.868-1.974h21.131c0,0,3.222-3.707,3.222-4.005v-1.233c0-0.532-2.696,0.345-3.775,0.39h-0.157&#xD;&#xA;&#x9;&#x9;c-0.083-0.007-0.152-0.021-0.199-0.045h-22.184c-0.137-0.517,0.104-2.045,0.098-2.346c-0.006-0.309,0.948-1.127,0.833-1.87&#xD;&#xA;&#x9;&#x9;c-0.047-0.3-0.167-1.313-0.315-2.429h22.588c0,0,3.112-2.378,3.112-2.773s0-0.91,0-0.91l-0.255-0.318H198.1&#xD;&#xA;&#x9;&#x9;c-0.838-0.473-3.452-0.601-3.888-1.15h-24.033c-0.107-0.458-0.063-1.849-0.057-2.23c0.003-0.396,1.43-0.942,1.355-1.436&#xD;&#xA;&#x9;&#x9;c-0.038-0.247-0.205-1.709-0.396-3.172h24.164C195.306,88.403,198.358,86.024,198.358,85.528z"/>
  <linearGradient id="SVGID_43_" gradientUnits="userSpaceOnUse" x1="240.8833" y1="45.4985" x2="240.8833" y2="142.8179">
    <stop offset="0" style="stop-color:#FFFFFF;stop-opacity:0.05"/>
    <stop offset="0.0166" style="stop-color:#FFFFFF;stop-opacity:0.2"/>
    <stop offset="0.1026" style="stop-color:#FFFFFF;stop-opacity:0.45"/>
    <stop offset="0.2615" style="stop-color:#FFFFFF;stop-opacity:0.25"/>
    <stop offset="0.7225" style="stop-color:#000000;stop-opacity:0.1"/>
    <stop offset="1" style="stop-color:#000000;stop-opacity:0.4"/>
  </linearGradient>
  <path fill="url(#SVGID_43_)" d="M237.91,141.925c0,0.491,0.401,0.893,0.892,0.893h4.163c0.49,0,0.892-0.401,0.892-0.893V46.391&#xD;&#xA;&#x9;&#x9;c0-0.491-0.401-0.892-0.892-0.892h-4.163c-0.491,0-0.892,0.401-0.892,0.892V141.925z"/>
  <linearGradient id="SVGID_44_" gradientUnits="userSpaceOnUse" x1="237.9102" y1="94.1582" x2="243.8564" y2="94.1582">
    <stop offset="0" style="stop-color:#000000;stop-opacity:0.25"/>
    <stop offset="0.0048" style="stop-color:#000000;stop-opacity:0.2414"/>
    <stop offset="0.1403" style="stop-color:#000000;stop-opacity:0"/>
    <stop offset="0.8703" style="stop-color:#000000;stop-opacity:0"/>
    <stop offset="0.9922" style="stop-color:#000000;stop-opacity:0.235"/>
    <stop offset="1" style="stop-color:#000000;stop-opacity:0.25"/>
  </linearGradient>
  <path fill="url(#SVGID_44_)" d="M237.91,141.925c0,0.491,0.401,0.893,0.892,0.893h4.163c0.49,0,0.892-0.401,0.892-0.893V46.391&#xD;&#xA;&#x9;&#x9;c0-0.491-0.401-0.892-0.892-0.892h-4.163c-0.491,0-0.892,0.401-0.892,0.892V141.925z"/>
  <linearGradient id="SVGID_45_" gradientUnits="userSpaceOnUse" x1="65.7881" y1="64.8223" x2="65.7881" y2="123.4956">
    <stop offset="0" style="stop-color:#FFFFFF;stop-opacity:0.05"/>
    <stop offset="0.0166" style="stop-color:#FFFFFF;stop-opacity:0.2"/>
    <stop offset="0.1026" style="stop-color:#FFFFFF;stop-opacity:0.45"/>
    <stop offset="0.2615" style="stop-color:#FFFFFF;stop-opacity:0.25"/>
    <stop offset="0.7225" style="stop-color:#000000;stop-opacity:0.1"/>
    <stop offset="1" style="stop-color:#000000;stop-opacity:0.4"/>
  </linearGradient>
  <rect x="54.313" y="64.822" fill="url(#SVGID_45_)" width="22.951" height="58.673"/>
  <linearGradient id="SVGID_46_" gradientUnits="userSpaceOnUse" x1="26.3843" y1="49.1074" x2="26.3843" y2="139.2104">
    <stop offset="0" style="stop-color:#FFFFFF;stop-opacity:0.05"/>
    <stop offset="0.0166" style="stop-color:#FFFFFF;stop-opacity:0.2"/>
    <stop offset="0.1026" style="stop-color:#FFFFFF;stop-opacity:0.45"/>
    <stop offset="0.2615" style="stop-color:#FFFFFF;stop-opacity:0.25"/>
    <stop offset="0.7225" style="stop-color:#000000;stop-opacity:0.1"/>
    <stop offset="1" style="stop-color:#000000;stop-opacity:0.4"/>
  </linearGradient>
  <path fill="url(#SVGID_46_)" d="M51.768,61.038v66.242l-1.243,8.381c-0.098,0.647-0.657,1.409-1.249,1.691l-2.81,1.344&#xD;&#xA;&#x9;&#x9;c-0.591,0.282-1.608,0.515-2.262,0.515h-28.54c-0.654,0-1.662-0.25-2.238-0.556l-11.377-6.038C1.473,132.31,1,131.524,1,130.871&#xD;&#xA;&#x9;&#x9;V57.446c0-0.654,0.473-1.439,1.049-1.745l11.377-6.038c0.577-0.306,1.584-0.556,2.238-0.556h28.54c0.654,0,1.671,0.231,2.262,0.514&#xD;&#xA;&#x9;&#x9;l2.81,1.344c0.591,0.283,1.15,1.044,1.249,1.692L51.768,61.038z"/>
  <linearGradient id="SVGID_47_" gradientUnits="userSpaceOnUse" x1="53.0405" y1="61.0376" x2="53.0405" y2="127.2798">
    <stop offset="0" style="stop-color:#FFFFFF;stop-opacity:0.05"/>
    <stop offset="0.0166" style="stop-color:#FFFFFF;stop-opacity:0.2"/>
    <stop offset="0.1026" style="stop-color:#FFFFFF;stop-opacity:0.45"/>
    <stop offset="0.2615" style="stop-color:#FFFFFF;stop-opacity:0.25"/>
    <stop offset="0.7225" style="stop-color:#000000;stop-opacity:0.1"/>
    <stop offset="1" style="stop-color:#000000;stop-opacity:0.4"/>
  </linearGradient>
  <path fill="url(#SVGID_47_)" d="M54.313,64.822v58.673c-1.857,0-2.47,3.332-2.539,3.749l-0.006,0.035V61.038l0.006,0.039&#xD;&#xA;&#x9;&#x9;C51.842,61.492,52.455,64.822,54.313,64.822z"/>
  <linearGradient id="SVGID_48_" gradientUnits="userSpaceOnUse" x1="54.3125" y1="94.1587" x2="77.2637" y2="94.1587">
    <stop offset="0.6998" style="stop-color:#000000;stop-opacity:0.1"/>
    <stop offset="0.9576" style="stop-color:#000000;stop-opacity:0.2288"/>
    <stop offset="1" style="stop-color:#000000;stop-opacity:0.25"/>
  </linearGradient>
  <rect x="54.313" y="64.822" fill="url(#SVGID_48_)" width="22.951" height="58.673"/>
  <linearGradient id="SVGID_49_" gradientUnits="userSpaceOnUse" x1="1" y1="94.1587" x2="51.7681" y2="94.1587">
    <stop offset="0" style="stop-color:#000000;stop-opacity:0.25"/>
    <stop offset="0.0362" style="stop-color:#000000;stop-opacity:0.08"/>
    <stop offset="0.2187" style="stop-color:#000000;stop-opacity:0.1"/>
    <stop offset="0.3002" style="stop-color:#000000;stop-opacity:0"/>
    <stop offset="0.8341" style="stop-color:#000000;stop-opacity:0"/>
    <stop offset="0.8944" style="stop-color:#000000;stop-opacity:0.1"/>
    <stop offset="0.9427" style="stop-color:#000000;stop-opacity:0.1"/>
    <stop offset="1" style="stop-color:#000000;stop-opacity:0.3"/>
  </linearGradient>
  <path fill="url(#SVGID_49_)" d="M51.768,61.038v66.242l-1.243,8.381c-0.098,0.647-0.657,1.409-1.249,1.691l-2.81,1.344&#xD;&#xA;&#x9;&#x9;c-0.591,0.282-1.608,0.515-2.262,0.515h-28.54c-0.654,0-1.662-0.25-2.238-0.556l-11.377-6.038C1.473,132.31,1,131.524,1,130.871&#xD;&#xA;&#x9;&#x9;V57.446c0-0.654,0.473-1.439,1.049-1.745l11.377-6.038c0.577-0.306,1.584-0.556,2.238-0.556h28.54c0.654,0,1.671,0.231,2.262,0.514&#xD;&#xA;&#x9;&#x9;l2.81,1.344c0.591,0.283,1.15,1.044,1.249,1.692L51.768,61.038z"/>
  <linearGradient id="SVGID_50_" gradientUnits="userSpaceOnUse" x1="51.7681" y1="94.1582" x2="54.3125" y2="94.1582">
    <stop offset="0" style="stop-color:#000000;stop-opacity:0.3"/>
    <stop offset="1" style="stop-color:#000000;stop-opacity:0.1"/>
  </linearGradient>
  <path fill="url(#SVGID_50_)" d="M54.313,64.822v58.673c-1.857,0-2.47,3.332-2.539,3.749l-0.006,0.035V61.038l0.006,0.039&#xD;&#xA;&#x9;&#x9;C51.842,61.492,52.455,64.822,54.313,64.822z"/>
  <linearGradient id="SVGID_51_" gradientUnits="userSpaceOnUse" x1="153.5215" y1="1" x2="153.5215" y2="26.3672">
    <stop offset="0" style="stop-color:#FFFFFF;stop-opacity:0.25"/>
    <stop offset="0.0262" style="stop-color:#F7F7F7;stop-opacity:0.2526"/>
    <stop offset="0.393" style="stop-color:#8F8F8F;stop-opacity:0.2893"/>
    <stop offset="0.6878" style="stop-color:#424242;stop-opacity:0.3188"/>
    <stop offset="0.8965" style="stop-color:#121212;stop-opacity:0.3396"/>
    <stop offset="1" style="stop-color:#000000;stop-opacity:0.35"/>
  </linearGradient>
  <path fill="url(#SVGID_51_)" d="M153.521,1c-7.004,0-12.686,5.678-12.686,12.685c0,6.365,4.691,11.636,10.804,12.542&#xD;&#xA;&#x9;&#x9;c0.615,0.092,1.243,0.14,1.882,0.14s1.267-0.047,1.882-0.14c6.112-0.906,10.804-6.178,10.804-12.542&#xD;&#xA;&#x9;&#x9;C166.207,6.678,160.525,1,153.521,1z M155.243,25.151c-0.565,0.086-1.136,0.128-1.722,0.128c-0.585,0-1.159-0.042-1.721-0.128&#xD;&#xA;&#x9;&#x9;c-5.589-0.826-9.876-5.648-9.876-11.466c0-6.407,5.194-11.597,11.597-11.597s11.598,5.19,11.598,11.597&#xD;&#xA;&#x9;&#x9;C165.119,19.503,160.829,24.325,155.243,25.151z"/>
  <linearGradient id="SVGID_52_" gradientUnits="userSpaceOnUse" x1="153.522" y1="2.0879" x2="153.522" y2="25.2793">
    <stop offset="0" style="stop-color:#B4B4B4;stop-opacity:0.2793"/>
    <stop offset="1" style="stop-color:#3B3B3B;stop-opacity:0.3266"/>
  </linearGradient>
  <path fill="url(#SVGID_52_)" d="M153.521,2.088c-6.403,0-11.597,5.19-11.597,11.597c0,5.818,4.287,10.64,9.876,11.466&#xD;&#xA;&#x9;&#x9;c0.562,0.086,1.136,0.128,1.721,0.128c0.586,0,1.156-0.042,1.722-0.128c5.586-0.826,9.876-5.648,9.876-11.466&#xD;&#xA;&#x9;&#x9;C165.119,7.278,159.925,2.088,153.521,2.088z M155.1,24.212c-0.514,0.077-1.043,0.119-1.579,0.119s-1.064-0.042-1.579-0.119&#xD;&#xA;&#x9;&#x9;c-5.131-0.761-9.067-5.185-9.067-10.527c0-5.88,4.769-10.646,10.646-10.646s10.646,4.766,10.646,10.646&#xD;&#xA;&#x9;&#x9;C164.167,19.027,160.231,23.451,155.1,24.212z"/>
  <linearGradient id="SVGID_53_" gradientUnits="userSpaceOnUse" x1="153.5215" y1="24.3311" x2="153.5215" y2="3.0391">
    <stop offset="0" style="stop-color:#FFFFFF;stop-opacity:0"/>
    <stop offset="0.1056" style="stop-color:#FFFFFF;stop-opacity:0.2"/>
    <stop offset="0.1291" style="stop-color:#F7F7F7;stop-opacity:0.2039"/>
    <stop offset="0.4571" style="stop-color:#8F8F8F;stop-opacity:0.259"/>
    <stop offset="0.7208" style="stop-color:#424242;stop-opacity:0.3032"/>
    <stop offset="0.9074" style="stop-color:#121212;stop-opacity:0.3345"/>
    <stop offset="1" style="stop-color:#000000;stop-opacity:0.35"/>
  </linearGradient>
  <path fill="url(#SVGID_53_)" d="M153.521,3.039c-5.877,0-10.646,4.766-10.646,10.646c0,5.342,3.936,9.766,9.067,10.527&#xD;&#xA;&#x9;&#x9;c0.514,0.077,1.043,0.119,1.579,0.119s1.064-0.042,1.579-0.119c5.131-0.761,9.067-5.185,9.067-10.527&#xD;&#xA;&#x9;&#x9;C164.167,7.805,159.399,3.039,153.521,3.039z M153.521,22.877c-5.078,0-9.195-4.114-9.195-9.192c0-5.081,4.118-9.195,9.195-9.195&#xD;&#xA;&#x9;&#x9;s9.195,4.114,9.195,9.195C162.717,18.763,158.599,22.877,153.521,22.877z"/>
  <linearGradient id="SVGID_54_" gradientUnits="userSpaceOnUse" x1="151.6396" y1="32.0234" x2="155.4033" y2="32.0234">
    <stop offset="0" style="stop-color:#000000;stop-opacity:0.25"/>
    <stop offset="0.0444" style="stop-color:#181818;stop-opacity:0.237"/>
    <stop offset="0.2795" style="stop-color:#939393;stop-opacity:0.1685"/>
    <stop offset="0.4407" style="stop-color:#E1E1E1;stop-opacity:0.1215"/>
    <stop offset="0.5143" style="stop-color:#FFFFFF;stop-opacity:0.1"/>
    <stop offset="0.5556" style="stop-color:#F5F5F5;stop-opacity:0.1127"/>
    <stop offset="0.625" style="stop-color:#DBDBDB;stop-opacity:0.1342"/>
    <stop offset="0.714" style="stop-color:#B1B1B1;stop-opacity:0.1617"/>
    <stop offset="0.8192" style="stop-color:#767676;stop-opacity:0.1941"/>
    <stop offset="0.9366" style="stop-color:#2B2B2B;stop-opacity:0.2304"/>
    <stop offset="1" style="stop-color:#000000;stop-opacity:0.25"/>
  </linearGradient>
  <path fill="url(#SVGID_54_)" d="M155.403,26.228v11.592h-3.764V26.228c0.615,0.092,1.243,0.14,1.882,0.14&#xD;&#xA;&#x9;&#x9;S154.788,26.32,155.403,26.228z"/>
  <linearGradient id="SVGID_55_" gradientUnits="userSpaceOnUse" x1="151.6396" y1="26.8926" x2="155.4033" y2="26.8926">
    <stop offset="0" style="stop-color:#000000;stop-opacity:0.35"/>
    <stop offset="1" style="stop-color:#000000;stop-opacity:0.35"/>
  </linearGradient>
  <path fill="url(#SVGID_55_)" d="M151.64,27.558c0,0,0.507-0.693,1.882-0.693s1.882,0.693,1.882,0.693v-1.33&#xD;&#xA;&#x9;&#x9;c0,0-0.686,0.14-1.882,0.14s-1.882-0.14-1.882-0.14V27.558z"/>
</svg>